<?xml version="1.0" encoding="utf-8" standalone="no"?>
<!DOCTYPE svg PUBLIC "-//W3C//DTD SVG 1.1//EN"
  "http://www.w3.org/Graphics/SVG/1.1/DTD/svg11.dtd">
<!-- Created with matplotlib (https://matplotlib.org/) -->
<svg height="360pt" version="1.1" viewBox="0 0 1080 360" width="1080pt" xmlns="http://www.w3.org/2000/svg" xmlns:xlink="http://www.w3.org/1999/xlink">
 <metadata>
  <rdf:RDF xmlns:cc="http://creativecommons.org/ns#" xmlns:dc="http://purl.org/dc/elements/1.1/" xmlns:rdf="http://www.w3.org/1999/02/22-rdf-syntax-ns#">
   <cc:Work>
    <dc:type rdf:resource="http://purl.org/dc/dcmitype/StillImage"/>
    <dc:date>2021-08-23T13:10:20.044166</dc:date>
    <dc:format>image/svg+xml</dc:format>
    <dc:creator>
     <cc:Agent>
      <dc:title>Matplotlib v3.3.4, https://matplotlib.org/</dc:title>
     </cc:Agent>
    </dc:creator>
   </cc:Work>
  </rdf:RDF>
 </metadata>
 <defs>
  <style type="text/css">*{stroke-linecap:butt;stroke-linejoin:round;}</style>
 </defs>
 <g id="figure_1">
  <g id="patch_1">
   <path d="M 0 360 
L 1080 360 
L 1080 0 
L 0 0 
z
" style="fill:#ffffff;"/>
  </g>
  <g id="axes_1">
   <g id="patch_2">
    <path d="M 71.66 300.568 
L 349.785 300.568 
L 349.785 38.16 
L 71.66 38.16 
z
" style="fill:#ffffff;"/>
   </g>
   <g id="matplotlib.axis_1">
    <g id="xtick_1">
     <g id="line2d_1">
      <defs>
       <path d="M 0 0 
L 0 3.5 
" id="m59a2fa6818" style="stroke:#000000;stroke-width:0.8;"/>
      </defs>
      <g>
       <use style="stroke:#000000;stroke-width:0.8;" x="111.392143" xlink:href="#m59a2fa6818" y="300.568"/>
      </g>
     </g>
     <g id="text_1">
      <!-- −2 -->
      <g transform="translate(98.943393 319.7955)scale(0.16 -0.16)">
       <defs>
        <path d="M 78.125 40.28125 
L 78.125 35.796875 
L 21.921875 35.796875 
L 21.921875 40.28125 
z
" id="YuGothic-Regular-8722"/>
        <path d="M 7.171875 56.203125 
Q 9.1875 66.0625 15.4375 70.953125 
Q 20.703125 75.09375 28.421875 75.09375 
Q 37.59375 75.09375 42.96875 69.578125 
Q 47.796875 64.65625 47.796875 56.6875 
Q 47.796875 50.296875 44.34375 44.921875 
Q 41.0625 39.9375 32.71875 32.421875 
Q 18.609375 20.0625 12.890625 7.71875 
L 47.90625 7.71875 
L 47.90625 2.203125 
L 6.59375 2.203125 
L 6.59375 7.125 
Q 12.796875 21.96875 28.21875 36.078125 
Q 36.421875 43.75 39.015625 48.25 
Q 41.21875 52.046875 41.21875 56.6875 
Q 41.21875 63.09375 37.15625 66.609375 
Q 33.6875 69.578125 28.328125 69.578125 
Q 16.015625 69.578125 13.484375 54.59375 
z
" id="YuGothic-Regular-50"/>
       </defs>
       <use xlink:href="#YuGothic-Regular-8722"/>
       <use x="100" xlink:href="#YuGothic-Regular-50"/>
      </g>
     </g>
    </g>
    <g id="xtick_2">
     <g id="line2d_2">
      <g>
       <use style="stroke:#000000;stroke-width:0.8;" x="190.856429" xlink:href="#m59a2fa6818" y="300.568"/>
      </g>
     </g>
     <g id="text_2">
      <!-- 0 -->
      <g transform="translate(186.407679 319.7955)scale(0.16 -0.16)">
       <defs>
        <path d="M 27.9375 75.09375 
Q 49.21875 75.09375 49.21875 38.375 
Q 49.21875 0.875 27.6875 0.875 
Q 6.390625 0.875 6.390625 38.1875 
Q 6.390625 75.09375 27.9375 75.09375 
z
M 27.9375 69.578125 
Q 19.828125 69.578125 16.359375 61.53125 
Q 13.09375 54 13.09375 38.375 
Q 13.09375 20.359375 17.1875 12.796875 
Q 20.65625 6.390625 27.6875 6.390625 
Q 35.796875 6.390625 39.3125 14.84375 
Q 42.53125 22.5625 42.53125 38.28125 
Q 42.53125 56.109375 38.375 63.421875 
Q 34.90625 69.578125 27.9375 69.578125 
z
" id="YuGothic-Regular-48"/>
       </defs>
       <use xlink:href="#YuGothic-Regular-48"/>
      </g>
     </g>
    </g>
    <g id="xtick_3">
     <g id="line2d_3">
      <g>
       <use style="stroke:#000000;stroke-width:0.8;" x="270.320714" xlink:href="#m59a2fa6818" y="300.568"/>
      </g>
     </g>
     <g id="text_3">
      <!-- 2 -->
      <g transform="translate(265.871964 319.7955)scale(0.16 -0.16)">
       <use xlink:href="#YuGothic-Regular-50"/>
      </g>
     </g>
    </g>
    <g id="xtick_4">
     <g id="line2d_4">
      <g>
       <use style="stroke:#000000;stroke-width:0.8;" x="349.785" xlink:href="#m59a2fa6818" y="300.568"/>
      </g>
     </g>
     <g id="text_4">
      <!-- 4 -->
      <g transform="translate(345.33625 319.7955)scale(0.16 -0.16)">
       <defs>
        <path d="M 39.890625 74.8125 
L 39.890625 24.5625 
L 50.484375 24.5625 
L 50.484375 19.390625 
L 39.890625 19.390625 
L 39.890625 2.203125 
L 34.1875 2.203125 
L 34.1875 19.390625 
L 4.78125 19.390625 
L 4.78125 24.265625 
L 31.203125 74.8125 
z
M 34.1875 24.5625 
L 34.1875 54.5 
Q 34.1875 57.46875 34.375 69.671875 
L 33.40625 69.671875 
Q 30.375 62.3125 26.859375 55.671875 
L 10.890625 24.5625 
z
" id="YuGothic-Regular-52"/>
       </defs>
       <use xlink:href="#YuGothic-Regular-52"/>
      </g>
     </g>
    </g>
    <g id="text_5">
     <!-- d$_x$ -->
     <g transform="translate(202.4825 338.663)scale(0.16 -0.16)">
      <defs>
       <path d="M 48 76.421875 
L 48 2.203125 
L 42 2.203125 
L 42 9.90625 
Q 36.421875 0.984375 26.90625 0.984375 
Q 17.484375 0.984375 11.859375 8.9375 
Q 6.78125 16.109375 6.78125 27.390625 
Q 6.78125 40.234375 13.1875 47.40625 
Q 18.5 53.421875 26.609375 53.421875 
Q 35.984375 53.421875 41.796875 44.671875 
L 41.796875 76.421875 
z
M 41.796875 37.984375 
Q 36.53125 48 27.59375 48 
Q 20.65625 48 16.75 41.9375 
Q 13.1875 36.46875 13.1875 27.296875 
Q 13.1875 16.703125 18.015625 11.03125 
Q 21.96875 6.296875 28.078125 6.296875 
Q 36.28125 6.296875 41.796875 16.015625 
z
" id="YuGothic-Regular-100"/>
       <path d="M 60.015625 54.6875 
L 34.90625 27.875 
L 50.296875 0 
L 39.984375 0 
L 28.421875 21.6875 
L 8.296875 0 
L -2.59375 0 
L 24.3125 28.8125 
L 10.015625 54.6875 
L 20.3125 54.6875 
L 30.8125 34.90625 
L 49.125 54.6875 
z
" id="DejaVuSans-Oblique-120"/>
      </defs>
      <use transform="translate(0 0.578125)" xlink:href="#YuGothic-Regular-100"/>
      <use transform="translate(58.769531 -15.828125)scale(0.7)" xlink:href="#DejaVuSans-Oblique-120"/>
     </g>
    </g>
   </g>
   <g id="matplotlib.axis_2">
    <g id="ytick_1">
     <g id="line2d_5">
      <defs>
       <path d="M 0 0 
L -3.5 0 
" id="ma54bd6d277" style="stroke:#000000;stroke-width:0.8;"/>
      </defs>
      <g>
       <use style="stroke:#000000;stroke-width:0.8;" x="71.66" xlink:href="#ma54bd6d277" y="300.568"/>
      </g>
     </g>
     <g id="text_6">
      <!-- −3 -->
      <g transform="translate(39.7625 306.68175)scale(0.16 -0.16)">
       <defs>
        <path d="M 7.234375 61.28125 
Q 10.015625 68.40625 15.828125 71.96875 
Q 20.796875 75.09375 27.4375 75.09375 
Q 36.421875 75.09375 42 69.625 
Q 46.921875 64.84375 46.921875 57.71875 
Q 46.921875 50.640625 42.78125 46.09375 
Q 39.203125 42.234375 33.203125 40.828125 
L 33.203125 40.1875 
Q 41.015625 38.421875 45.0625 33.0625 
Q 48.640625 28.328125 48.640625 21.6875 
Q 48.640625 11.71875 42 5.90625 
Q 36.28125 0.875 27.640625 0.875 
Q 11.859375 0.875 5.8125 14.5 
L 11.8125 17.09375 
Q 14.40625 10.9375 18.609375 8.453125 
Q 22.171875 6.296875 27.640625 6.296875 
Q 34.625 6.296875 38.578125 10.984375 
Q 42.046875 15.09375 42.046875 21.484375 
Q 42.046875 29.5 37.015625 33.546875 
Q 32.46875 37.203125 24.421875 37.203125 
L 18.796875 37.203125 
L 18.796875 42.921875 
L 23.828125 42.921875 
Q 32.375 42.921875 36.71875 47.265625 
Q 40.4375 50.984375 40.4375 57.171875 
Q 40.4375 63.421875 36.234375 66.84375 
Q 32.71875 69.671875 27.296875 69.671875 
Q 22.015625 69.671875 18.265625 66.65625 
Q 14.796875 63.875 13.234375 58.890625 
z
" id="YuGothic-Regular-51"/>
       </defs>
       <use xlink:href="#YuGothic-Regular-8722"/>
       <use x="100" xlink:href="#YuGothic-Regular-51"/>
      </g>
     </g>
    </g>
    <g id="ytick_2">
     <g id="line2d_6">
      <g>
       <use style="stroke:#000000;stroke-width:0.8;" x="71.66" xlink:href="#ma54bd6d277" y="263.081143"/>
      </g>
     </g>
     <g id="text_7">
      <!-- −2 -->
      <g transform="translate(39.7625 269.194893)scale(0.16 -0.16)">
       <use xlink:href="#YuGothic-Regular-8722"/>
       <use x="100" xlink:href="#YuGothic-Regular-50"/>
      </g>
     </g>
    </g>
    <g id="ytick_3">
     <g id="line2d_7">
      <g>
       <use style="stroke:#000000;stroke-width:0.8;" x="71.66" xlink:href="#ma54bd6d277" y="225.594286"/>
      </g>
     </g>
     <g id="text_8">
      <!-- −1 -->
      <g transform="translate(39.7625 231.708036)scale(0.16 -0.16)">
       <defs>
        <path d="M 32.234375 74.90625 
L 32.234375 7.515625 
L 45.703125 7.515625 
L 45.703125 2.203125 
L 11.625 2.203125 
L 11.625 7.515625 
L 26.03125 7.515625 
L 26.03125 68.109375 
Q 19.671875 63.765625 11.328125 60.59375 
L 10.203125 66.40625 
Q 18.5 69.1875 27.09375 74.90625 
z
" id="YuGothic-Regular-49"/>
       </defs>
       <use xlink:href="#YuGothic-Regular-8722"/>
       <use x="100" xlink:href="#YuGothic-Regular-49"/>
      </g>
     </g>
    </g>
    <g id="ytick_4">
     <g id="line2d_8">
      <g>
       <use style="stroke:#000000;stroke-width:0.8;" x="71.66" xlink:href="#ma54bd6d277" y="188.107429"/>
      </g>
     </g>
     <g id="text_9">
      <!-- 0 -->
      <g transform="translate(55.7625 194.221179)scale(0.16 -0.16)">
       <use xlink:href="#YuGothic-Regular-48"/>
      </g>
     </g>
    </g>
    <g id="ytick_5">
     <g id="line2d_9">
      <g>
       <use style="stroke:#000000;stroke-width:0.8;" x="71.66" xlink:href="#ma54bd6d277" y="150.620571"/>
      </g>
     </g>
     <g id="text_10">
      <!-- 1 -->
      <g transform="translate(55.7625 156.734321)scale(0.16 -0.16)">
       <use xlink:href="#YuGothic-Regular-49"/>
      </g>
     </g>
    </g>
    <g id="ytick_6">
     <g id="line2d_10">
      <g>
       <use style="stroke:#000000;stroke-width:0.8;" x="71.66" xlink:href="#ma54bd6d277" y="113.133714"/>
      </g>
     </g>
     <g id="text_11">
      <!-- 2 -->
      <g transform="translate(55.7625 119.247464)scale(0.16 -0.16)">
       <use xlink:href="#YuGothic-Regular-50"/>
      </g>
     </g>
    </g>
    <g id="ytick_7">
     <g id="line2d_11">
      <g>
       <use style="stroke:#000000;stroke-width:0.8;" x="71.66" xlink:href="#ma54bd6d277" y="75.646857"/>
      </g>
     </g>
     <g id="text_12">
      <!-- 3 -->
      <g transform="translate(55.7625 81.760607)scale(0.16 -0.16)">
       <use xlink:href="#YuGothic-Regular-51"/>
      </g>
     </g>
    </g>
    <g id="ytick_8">
     <g id="line2d_12">
      <g>
       <use style="stroke:#000000;stroke-width:0.8;" x="71.66" xlink:href="#ma54bd6d277" y="38.16"/>
      </g>
     </g>
     <g id="text_13">
      <!-- 4 -->
      <g transform="translate(55.7625 44.27375)scale(0.16 -0.16)">
       <use xlink:href="#YuGothic-Regular-52"/>
      </g>
     </g>
    </g>
    <g id="text_14">
     <!-- d$_y$ -->
     <g transform="translate(30.8025 177.604)rotate(-90)scale(0.16 -0.16)">
      <defs>
       <path d="M 24.8125 -5.078125 
Q 18.5625 -15.578125 14.625 -18.1875 
Q 10.6875 -20.796875 4.59375 -20.796875 
L -2.484375 -20.796875 
L -0.984375 -13.28125 
L 4.203125 -13.28125 
Q 7.953125 -13.28125 10.59375 -11.234375 
Q 13.234375 -9.1875 16.5 -3.21875 
L 19.28125 2 
L 7.171875 54.6875 
L 16.703125 54.6875 
L 25.78125 12.796875 
L 50.875 54.6875 
L 60.296875 54.6875 
z
" id="DejaVuSans-Oblique-121"/>
      </defs>
      <use transform="translate(0 0.578125)" xlink:href="#YuGothic-Regular-100"/>
      <use transform="translate(58.769531 -15.828125)scale(0.7)" xlink:href="#DejaVuSans-Oblique-121"/>
     </g>
    </g>
   </g>
   <g id="line2d_13">
    <path clip-path="url(#p09c3c08c88)" d="M 210.7225 188.107429 
L 210.811554 189.880178 
L 211.077918 191.637035 
L 211.519203 193.362247 
L 212.131453 195.040347 
L 212.909179 196.656291 
L 213.845409 198.19559 
L 214.931748 199.644444 
L 216.158458 200.989865 
L 217.51454 202.219788 
L 218.987836 203.323188 
L 220.565138 204.290173 
L 222.232305 205.112071 
L 223.974389 205.781516 
L 225.775772 206.292505 
L 227.620304 206.640457 
L 229.491447 206.822252 
L 231.372427 206.836261 
L 233.246379 206.682358 
L 235.096503 206.361922 
L 236.906211 205.877827 
L 238.659279 205.234412 
L 240.33999 204.437447 
L 241.933274 203.494075 
L 243.424849 202.412756 
L 244.801341 201.203184 
L 246.050409 199.876202 
L 247.160855 198.443708 
L 248.122723 196.918545 
L 248.92739 195.314386 
L 249.567642 193.645614 
L 250.037738 191.92719 
L 250.333463 190.174519 
L 250.452167 188.403317 
L 250.392786 186.629462 
L 250.155851 184.868857 
L 249.743486 183.137287 
L 249.15939 181.450277 
L 248.408798 179.822951 
L 247.49844 178.2699 
L 246.436478 176.805045 
L 245.232433 175.441522 
L 243.897098 174.191554 
L 242.442447 173.066348 
L 240.881521 172.075992 
L 239.228315 171.229364 
L 237.497649 170.534056 
L 235.70504 169.9963 
L 233.86656 169.620919 
L 231.998691 169.411278 
L 230.11818 169.369255 
L 228.241886 169.495228 
L 226.386631 169.788068 
L 224.569049 170.245149 
L 222.805434 170.862373 
L 221.111598 171.634206 
L 219.502728 172.553729 
L 217.993247 173.612698 
L 216.596688 174.801618 
L 215.325573 176.109831 
L 214.191297 177.525607 
L 213.20403 179.036254 
L 212.372623 180.628228 
L 211.70453 182.287256 
L 211.20574 183.998465 
L 210.880726 185.746512 
L 210.732401 187.515726 
L 210.7225 188.107429 
L 210.7225 188.107429 
" style="fill:none;stroke:#1a1a1a;stroke-linecap:square;stroke-width:3;"/>
   </g>
   <g id="line2d_14">
    <path clip-path="url(#p09c3c08c88)" d="M 71.66 188.107429 
L 349.785 188.107429 
" style="fill:none;stroke:#1a1a1a;stroke-linecap:square;stroke-width:1.5;"/>
   </g>
   <g id="line2d_15">
    <path clip-path="url(#p09c3c08c88)" d="M 190.856429 300.568 
L 190.856429 38.16 
" style="fill:none;stroke:#1a1a1a;stroke-linecap:square;stroke-width:1.5;"/>
   </g>
   <g id="line2d_16">
    <defs>
     <path d="M 0 7.5 
C 1.989023 7.5 3.896849 6.709753 5.303301 5.303301 
C 6.709753 3.896849 7.5 1.989023 7.5 0 
C 7.5 -1.989023 6.709753 -3.896849 5.303301 -5.303301 
C 3.896849 -6.709753 1.989023 -7.5 0 -7.5 
C -1.989023 -7.5 -3.896849 -6.709753 -5.303301 -5.303301 
C -6.709753 -3.896849 -7.5 -1.989023 -7.5 0 
C -7.5 1.989023 -6.709753 3.896849 -5.303301 5.303301 
C -3.896849 6.709753 -1.989023 7.5 0 7.5 
z
" id="m28cec8a5b9" style="stroke:#80b2ff;"/>
    </defs>
    <g clip-path="url(#p09c3c08c88)">
     <use style="fill:#80b2ff;stroke:#80b2ff;" x="190.856429" xlink:href="#m28cec8a5b9" y="188.107429"/>
    </g>
   </g>
   <g id="patch_3">
    <path d="M 71.66 300.568 
L 71.66 38.16 
" style="fill:none;stroke:#000000;stroke-linecap:square;stroke-linejoin:miter;stroke-width:0.8;"/>
   </g>
   <g id="patch_4">
    <path d="M 349.785 300.568 
L 349.785 38.16 
" style="fill:none;stroke:#000000;stroke-linecap:square;stroke-linejoin:miter;stroke-width:0.8;"/>
   </g>
   <g id="patch_5">
    <path d="M 71.66 300.568 
L 349.785 300.568 
" style="fill:none;stroke:#000000;stroke-linecap:square;stroke-linejoin:miter;stroke-width:0.8;"/>
   </g>
   <g id="patch_6">
    <path d="M 71.66 38.16 
L 349.785 38.16 
" style="fill:none;stroke:#000000;stroke-linecap:square;stroke-linejoin:miter;stroke-width:0.8;"/>
   </g>
   <g id="text_15">
    <!-- Trivial -->
    <g transform="translate(183.592 32.16)scale(0.192 -0.192)">
     <defs>
      <path d="M 58.15625 75.09375 
L 58.15625 69.390625 
L 34.671875 69.390625 
L 34.671875 2.203125 
L 28.078125 2.203125 
L 28.078125 69.390625 
L 4.6875 69.390625 
L 4.6875 75.09375 
z
" id="YuGothic-Regular-84"/>
      <path d="M 32.71875 53.421875 
L 32.234375 47.21875 
Q 26.953125 47.21875 22.46875 42.671875 
Q 18.265625 38.484375 16.109375 31.5 
L 16.109375 2.203125 
L 10.015625 2.203125 
L 10.015625 52.203125 
L 15.921875 52.203125 
L 15.921875 39.203125 
Q 18.84375 46.6875 23.828125 50.390625 
Q 27.9375 53.421875 32.71875 53.421875 
z
" id="YuGothic-Regular-114"/>
      <path d="M 16.21875 52.203125 
L 16.21875 2.203125 
L 10.015625 2.203125 
L 10.015625 52.203125 
z
M 17.671875 72.3125 
L 17.671875 62.984375 
L 8.5 62.984375 
L 8.5 72.3125 
z
" id="YuGothic-Regular-105"/>
      <path d="M 45.125 52.203125 
L 28.328125 2.203125 
L 20.609375 2.203125 
L 3.8125 52.203125 
L 10.5 52.203125 
L 20.125 21.484375 
Q 20.90625 18.890625 24.21875 7.078125 
L 25.09375 7.078125 
Q 28.21875 18.40625 29.296875 21.921875 
L 38.8125 52.203125 
z
" id="YuGothic-Regular-118"/>
      <path d="M 8.59375 40.578125 
Q 13.09375 53.421875 28.265625 53.421875 
Q 46 53.421875 46 36.8125 
L 46 19.1875 
Q 46 9.1875 47.21875 2.203125 
L 41.40625 2.203125 
Q 40.765625 5.078125 40.28125 10.984375 
Q 33.6875 0.984375 22.21875 0.984375 
Q 14.265625 0.984375 10.0625 5.5625 
Q 6.5 9.421875 6.5 15.484375 
Q 6.5 29.046875 23.390625 31.890625 
Q 29.984375 33.015625 39.984375 33.5 
L 39.984375 36.1875 
Q 39.984375 43.3125 36.859375 46.09375 
Q 34.125 48.53125 28.171875 48.53125 
Q 17.4375 48.53125 14.40625 38.484375 
z
M 39.984375 28.90625 
Q 32.46875 28.765625 24.703125 27.296875 
Q 12.703125 24.859375 12.703125 15.765625 
Q 12.703125 10.890625 15.828125 8.25 
Q 18.609375 5.859375 23.296875 5.859375 
Q 33.34375 5.859375 39.984375 16.703125 
z
" id="YuGothic-Regular-97"/>
      <path d="M 16.21875 76.421875 
L 16.21875 2.203125 
L 10.015625 2.203125 
L 10.015625 76.421875 
z
" id="YuGothic-Regular-108"/>
     </defs>
     <use xlink:href="#YuGothic-Regular-84"/>
     <use x="62.890625" xlink:href="#YuGothic-Regular-114"/>
     <use x="99.267578" xlink:href="#YuGothic-Regular-105"/>
     <use x="125.488281" xlink:href="#YuGothic-Regular-118"/>
     <use x="174.365234" xlink:href="#YuGothic-Regular-105"/>
     <use x="200.585938" xlink:href="#YuGothic-Regular-97"/>
     <use x="256.396484" xlink:href="#YuGothic-Regular-108"/>
    </g>
   </g>
   <g id="legend_1">
    <g id="patch_7">
     <path d="M 236.345 74.5475 
L 338.585 74.5475 
Q 341.785 74.5475 341.785 71.3475 
L 341.785 49.36 
Q 341.785 46.16 338.585 46.16 
L 236.345 46.16 
Q 233.145 46.16 233.145 49.36 
L 233.145 71.3475 
Q 233.145 74.5475 236.345 74.5475 
z
" style="fill:#ffffff;opacity:0.8;stroke:#cccccc;stroke-linejoin:miter;"/>
    </g>
    <g id="line2d_17">
     <path d="M 239.545 59.1875 
L 271.545 59.1875 
" style="fill:none;stroke:#1a1a1a;stroke-linecap:square;stroke-width:3;"/>
    </g>
    <g id="line2d_18"/>
    <g id="text_16">
     <!-- $\gamma =$0.5 -->
     <g transform="translate(284.345 64.7875)scale(0.16 -0.16)">
      <defs>
       <path d="M 23.296875 46.09375 
L 28.71875 12.3125 
L 54 54.6875 
L 63.53125 54.6875 
L 30.8125 0 
L 26.765625 -20.796875 
L 17.78125 -20.796875 
L 21.828125 0 
L 15.4375 40.828125 
Q 14.453125 46.96875 9.8125 46.96875 
L 7.421875 46.96875 
L 8.890625 54.6875 
L 12.3125 54.6875 
Q 21.921875 54.6875 23.296875 46.09375 
z
" id="DejaVuSans-Oblique-947"/>
       <path d="M 10.59375 45.40625 
L 73.1875 45.40625 
L 73.1875 37.203125 
L 10.59375 37.203125 
z
M 10.59375 25.484375 
L 73.1875 25.484375 
L 73.1875 17.1875 
L 10.59375 17.1875 
z
" id="DejaVuSans-61"/>
       <path d="M 17.921875 12.40625 
L 17.921875 2.203125 
L 7.90625 2.203125 
L 7.90625 12.40625 
z
" id="YuGothic-Regular-46"/>
       <path d="M 45.40625 73.875 
L 45.40625 68.359375 
L 15.875 68.359375 
L 14.984375 49.359375 
Q 14.890625 47.21875 14.40625 40.96875 
Q 16.65625 44.625 20.703125 46.6875 
Q 24.3125 48.484375 28.421875 48.484375 
Q 37.453125 48.484375 43.015625 41.453125 
Q 48 35.109375 48 25.390625 
Q 48 13.28125 40.96875 6.5 
Q 35.203125 0.875 26.8125 0.875 
Q 12.0625 0.875 6.78125 14.203125 
L 12.890625 16.796875 
Q 16.546875 6.296875 26.8125 6.296875 
Q 33.9375 6.296875 37.890625 11.96875 
Q 41.40625 17 41.40625 25.09375 
Q 41.40625 34.1875 37.203125 38.96875 
Q 33.546875 43.0625 27.484375 43.0625 
Q 22.609375 43.0625 18.890625 40.09375 
Q 15.671875 37.453125 14.109375 33.0625 
L 8.890625 33.890625 
L 10.59375 73.875 
z
" id="YuGothic-Regular-53"/>
      </defs>
      <use transform="translate(0 0.90625)" xlink:href="#DejaVuSans-Oblique-947"/>
      <use transform="translate(78.662109 0.90625)" xlink:href="#DejaVuSans-61"/>
      <use transform="translate(181.933594 0.90625)" xlink:href="#YuGothic-Regular-48"/>
      <use transform="translate(237.548828 0.90625)" xlink:href="#YuGothic-Regular-46"/>
      <use transform="translate(263.330078 0.90625)" xlink:href="#YuGothic-Regular-53"/>
     </g>
    </g>
   </g>
  </g>
  <g id="axes_2">
   <g id="patch_8">
    <path d="M 425.9 300.568 
L 704.025 300.568 
L 704.025 38.16 
L 425.9 38.16 
z
" style="fill:#ffffff;"/>
   </g>
   <g id="matplotlib.axis_3">
    <g id="xtick_5">
     <g id="line2d_19">
      <g>
       <use style="stroke:#000000;stroke-width:0.8;" x="465.632143" xlink:href="#m59a2fa6818" y="300.568"/>
      </g>
     </g>
     <g id="text_17">
      <!-- −2 -->
      <g transform="translate(453.183393 319.7955)scale(0.16 -0.16)">
       <use xlink:href="#YuGothic-Regular-8722"/>
       <use x="100" xlink:href="#YuGothic-Regular-50"/>
      </g>
     </g>
    </g>
    <g id="xtick_6">
     <g id="line2d_20">
      <g>
       <use style="stroke:#000000;stroke-width:0.8;" x="545.096429" xlink:href="#m59a2fa6818" y="300.568"/>
      </g>
     </g>
     <g id="text_18">
      <!-- 0 -->
      <g transform="translate(540.647679 319.7955)scale(0.16 -0.16)">
       <use xlink:href="#YuGothic-Regular-48"/>
      </g>
     </g>
    </g>
    <g id="xtick_7">
     <g id="line2d_21">
      <g>
       <use style="stroke:#000000;stroke-width:0.8;" x="624.560714" xlink:href="#m59a2fa6818" y="300.568"/>
      </g>
     </g>
     <g id="text_19">
      <!-- 2 -->
      <g transform="translate(620.111964 319.7955)scale(0.16 -0.16)">
       <use xlink:href="#YuGothic-Regular-50"/>
      </g>
     </g>
    </g>
    <g id="xtick_8">
     <g id="line2d_22">
      <g>
       <use style="stroke:#000000;stroke-width:0.8;" x="704.025" xlink:href="#m59a2fa6818" y="300.568"/>
      </g>
     </g>
     <g id="text_20">
      <!-- 4 -->
      <g transform="translate(699.57625 319.7955)scale(0.16 -0.16)">
       <use xlink:href="#YuGothic-Regular-52"/>
      </g>
     </g>
    </g>
    <g id="text_21">
     <!-- d$_x$ -->
     <g transform="translate(556.7225 338.663)scale(0.16 -0.16)">
      <use transform="translate(0 0.578125)" xlink:href="#YuGothic-Regular-100"/>
      <use transform="translate(58.769531 -15.828125)scale(0.7)" xlink:href="#DejaVuSans-Oblique-120"/>
     </g>
    </g>
   </g>
   <g id="matplotlib.axis_4">
    <g id="ytick_9">
     <g id="line2d_23">
      <g>
       <use style="stroke:#000000;stroke-width:0.8;" x="425.9" xlink:href="#ma54bd6d277" y="300.568"/>
      </g>
     </g>
     <g id="text_22">
      <!-- −3 -->
      <g transform="translate(394.0025 306.68175)scale(0.16 -0.16)">
       <use xlink:href="#YuGothic-Regular-8722"/>
       <use x="100" xlink:href="#YuGothic-Regular-51"/>
      </g>
     </g>
    </g>
    <g id="ytick_10">
     <g id="line2d_24">
      <g>
       <use style="stroke:#000000;stroke-width:0.8;" x="425.9" xlink:href="#ma54bd6d277" y="263.081143"/>
      </g>
     </g>
     <g id="text_23">
      <!-- −2 -->
      <g transform="translate(394.0025 269.194893)scale(0.16 -0.16)">
       <use xlink:href="#YuGothic-Regular-8722"/>
       <use x="100" xlink:href="#YuGothic-Regular-50"/>
      </g>
     </g>
    </g>
    <g id="ytick_11">
     <g id="line2d_25">
      <g>
       <use style="stroke:#000000;stroke-width:0.8;" x="425.9" xlink:href="#ma54bd6d277" y="225.594286"/>
      </g>
     </g>
     <g id="text_24">
      <!-- −1 -->
      <g transform="translate(394.0025 231.708036)scale(0.16 -0.16)">
       <use xlink:href="#YuGothic-Regular-8722"/>
       <use x="100" xlink:href="#YuGothic-Regular-49"/>
      </g>
     </g>
    </g>
    <g id="ytick_12">
     <g id="line2d_26">
      <g>
       <use style="stroke:#000000;stroke-width:0.8;" x="425.9" xlink:href="#ma54bd6d277" y="188.107429"/>
      </g>
     </g>
     <g id="text_25">
      <!-- 0 -->
      <g transform="translate(410.0025 194.221179)scale(0.16 -0.16)">
       <use xlink:href="#YuGothic-Regular-48"/>
      </g>
     </g>
    </g>
    <g id="ytick_13">
     <g id="line2d_27">
      <g>
       <use style="stroke:#000000;stroke-width:0.8;" x="425.9" xlink:href="#ma54bd6d277" y="150.620571"/>
      </g>
     </g>
     <g id="text_26">
      <!-- 1 -->
      <g transform="translate(410.0025 156.734321)scale(0.16 -0.16)">
       <use xlink:href="#YuGothic-Regular-49"/>
      </g>
     </g>
    </g>
    <g id="ytick_14">
     <g id="line2d_28">
      <g>
       <use style="stroke:#000000;stroke-width:0.8;" x="425.9" xlink:href="#ma54bd6d277" y="113.133714"/>
      </g>
     </g>
     <g id="text_27">
      <!-- 2 -->
      <g transform="translate(410.0025 119.247464)scale(0.16 -0.16)">
       <use xlink:href="#YuGothic-Regular-50"/>
      </g>
     </g>
    </g>
    <g id="ytick_15">
     <g id="line2d_29">
      <g>
       <use style="stroke:#000000;stroke-width:0.8;" x="425.9" xlink:href="#ma54bd6d277" y="75.646857"/>
      </g>
     </g>
     <g id="text_28">
      <!-- 3 -->
      <g transform="translate(410.0025 81.760607)scale(0.16 -0.16)">
       <use xlink:href="#YuGothic-Regular-51"/>
      </g>
     </g>
    </g>
    <g id="ytick_16">
     <g id="line2d_30">
      <g>
       <use style="stroke:#000000;stroke-width:0.8;" x="425.9" xlink:href="#ma54bd6d277" y="38.16"/>
      </g>
     </g>
     <g id="text_29">
      <!-- 4 -->
      <g transform="translate(410.0025 44.27375)scale(0.16 -0.16)">
       <use xlink:href="#YuGothic-Regular-52"/>
      </g>
     </g>
    </g>
    <g id="text_30">
     <!-- d$_y$ -->
     <g transform="translate(385.0425 177.604)rotate(-90)scale(0.16 -0.16)">
      <use transform="translate(0 0.578125)" xlink:href="#YuGothic-Regular-100"/>
      <use transform="translate(58.769531 -15.828125)scale(0.7)" xlink:href="#DejaVuSans-Oblique-121"/>
     </g>
    </g>
   </g>
   <g id="line2d_31">
    <path clip-path="url(#pa56fe6131a)" d="M 545.096429 188.107429 
L 545.175621 190.47306 
L 545.412881 192.829262 
L 545.807264 195.166641 
L 546.357197 197.47588 
L 547.060488 199.747774 
L 547.914334 201.973265 
L 548.915331 204.143484 
L 550.059489 206.249778 
L 551.342246 208.283751 
L 552.75849 210.237296 
L 554.302575 212.102624 
L 555.968345 213.872301 
L 557.74916 215.539271 
L 559.637922 217.09689 
L 561.627101 218.538948 
L 563.708768 219.859698 
L 565.874625 221.053873 
L 568.116038 222.116714 
L 570.424072 223.043985 
L 572.789526 223.831988 
L 575.202972 224.477582 
L 577.654788 224.978194 
L 580.135201 225.331829 
L 582.634323 225.537076 
L 585.142192 225.593118 
L 587.648811 225.499731 
L 590.144187 225.257287 
L 592.618374 224.866752 
L 595.061508 224.329685 
L 597.463851 223.648225 
L 599.815826 222.825088 
L 602.108058 221.863557 
L 604.331408 220.767465 
L 606.477014 219.541179 
L 608.536323 218.18959 
L 610.501127 216.718084 
L 612.363591 215.132528 
L 614.116294 213.439242 
L 615.752246 211.644975 
L 617.264928 209.756882 
L 618.648309 207.782487 
L 619.896875 205.729661 
L 621.005648 203.606588 
L 621.970209 201.421731 
L 622.786712 199.1838 
L 623.451903 196.901714 
L 623.96313 194.584572 
L 624.318355 192.24161 
L 624.516162 189.882168 
L 624.555763 187.515652 
L 624.437 185.151494 
L 624.160346 182.79912 
L 623.726904 180.467906 
L 623.138401 178.167146 
L 622.397185 175.90601 
L 621.506209 173.693513 
L 620.469025 171.538474 
L 619.289768 169.449484 
L 617.973138 167.43487 
L 616.524385 165.502662 
L 614.949282 163.660564 
L 613.25411 161.915918 
L 611.445625 160.27568 
L 609.531037 158.746386 
L 607.517977 157.334135 
L 605.414471 156.044555 
L 603.228904 154.882787 
L 600.969987 153.853462 
L 598.646726 152.960683 
L 596.268381 152.20801 
L 593.844435 151.598442 
L 591.384548 151.13441 
L 588.898527 150.817763 
L 586.396283 150.649764 
L 583.887788 150.631081 
L 581.383045 150.761791 
L 578.892036 151.041371 
L 576.424691 151.468708 
L 573.990847 152.042097 
L 571.600206 152.759253 
L 569.262297 153.617317 
L 566.986439 154.612869 
L 564.781705 155.741941 
L 562.656884 157.00003 
L 560.620446 158.382123 
L 558.680509 159.882709 
L 556.844805 161.495808 
L 555.120653 163.214988 
L 553.514925 165.033397 
L 552.034023 166.943785 
L 550.683849 168.938539 
L 549.469787 171.009705 
L 548.396675 173.149027 
L 547.468791 175.347978 
L 546.689834 177.597792 
L 546.062909 179.889501 
L 545.590516 182.213968 
L 545.274537 184.561929 
L 545.116232 186.924023 
L 545.096429 188.107429 
L 545.096429 188.107429 
" style="fill:none;stroke:#1a1a1a;stroke-linecap:square;stroke-width:3;"/>
   </g>
   <g id="line2d_32">
    <path clip-path="url(#pa56fe6131a)" d="M 425.9 188.107429 
L 704.025 188.107429 
" style="fill:none;stroke:#1a1a1a;stroke-linecap:square;stroke-width:1.5;"/>
   </g>
   <g id="line2d_33">
    <path clip-path="url(#pa56fe6131a)" d="M 545.096429 300.568 
L 545.096429 38.16 
" style="fill:none;stroke:#1a1a1a;stroke-linecap:square;stroke-width:1.5;"/>
   </g>
   <g id="line2d_34">
    <g clip-path="url(#pa56fe6131a)">
     <use style="fill:#80b2ff;stroke:#80b2ff;" x="545.096429" xlink:href="#m28cec8a5b9" y="188.107429"/>
    </g>
   </g>
   <g id="patch_9">
    <path d="M 425.9 300.568 
L 425.9 38.16 
" style="fill:none;stroke:#000000;stroke-linecap:square;stroke-linejoin:miter;stroke-width:0.8;"/>
   </g>
   <g id="patch_10">
    <path d="M 704.025 300.568 
L 704.025 38.16 
" style="fill:none;stroke:#000000;stroke-linecap:square;stroke-linejoin:miter;stroke-width:0.8;"/>
   </g>
   <g id="patch_11">
    <path d="M 425.9 300.568 
L 704.025 300.568 
" style="fill:none;stroke:#000000;stroke-linecap:square;stroke-linejoin:miter;stroke-width:0.8;"/>
   </g>
   <g id="patch_12">
    <path d="M 425.9 38.16 
L 704.025 38.16 
" style="fill:none;stroke:#000000;stroke-linecap:square;stroke-linejoin:miter;stroke-width:0.8;"/>
   </g>
   <g id="text_31">
    <!-- Normal -->
    <g transform="translate(532.7635 32.16)scale(0.192 -0.192)">
     <defs>
      <path d="M 63.484375 75.09375 
L 63.484375 2.203125 
L 54.984375 2.203125 
L 28.65625 49.421875 
Q 24.609375 56.9375 18.265625 69.390625 
L 17.28125 69.390625 
Q 17.484375 53.8125 17.484375 47.515625 
L 17.484375 2.203125 
L 11.28125 2.203125 
L 11.28125 75.09375 
L 21.484375 75.09375 
L 46.578125 30.078125 
Q 51.078125 21.734375 56.984375 9.625 
L 57.953125 9.625 
Q 57.28125 22.5625 57.28125 32.328125 
L 57.28125 75.09375 
z
" id="YuGothic-Regular-78"/>
      <path d="M 28.078125 53.421875 
Q 38.09375 53.421875 44 45.515625 
Q 49.265625 38.421875 49.265625 27.390625 
Q 49.265625 14.59375 42.484375 7.28125 
Q 36.71875 0.984375 27.984375 0.984375 
Q 17.828125 0.984375 11.96875 8.984375 
Q 6.78125 16.015625 6.78125 27.09375 
Q 6.78125 39.890625 13.53125 47.171875 
Q 19.28125 53.421875 28.078125 53.421875 
z
M 28.078125 48.34375 
Q 20.65625 48.34375 16.703125 42.09375 
Q 13.1875 36.578125 13.1875 27.296875 
Q 13.1875 16.546875 17.671875 10.890625 
Q 21.578125 6.0625 27.984375 6.0625 
Q 35.359375 6.0625 39.359375 12.359375 
Q 42.875 17.921875 42.875 27.296875 
Q 42.875 37.890625 38.375 43.5 
Q 34.46875 48.34375 28.078125 48.34375 
z
" id="YuGothic-Regular-111"/>
      <path d="M 15.921875 52.203125 
L 15.921875 42.921875 
Q 23.734375 53.421875 32.8125 53.421875 
Q 38.28125 53.421875 42 50.09375 
Q 45.21875 47.265625 45.796875 43.015625 
Q 53.421875 53.421875 62.796875 53.421875 
Q 69.390625 53.421875 73.09375 49.171875 
Q 76.421875 45.40625 76.421875 39.3125 
L 76.421875 2.203125 
L 70.21875 2.203125 
L 70.21875 36.71875 
Q 70.21875 47.796875 61.078125 47.796875 
Q 56.9375 47.796875 52.640625 44.578125 
Q 49.03125 41.84375 46.1875 37.40625 
L 46.1875 2.203125 
L 39.984375 2.203125 
L 39.984375 36.71875 
Q 39.984375 47.796875 31.203125 47.796875 
Q 27.046875 47.796875 22.859375 44.734375 
Q 19.09375 42.046875 16.109375 37.40625 
L 16.109375 2.203125 
L 10.015625 2.203125 
L 10.015625 52.203125 
z
" id="YuGothic-Regular-109"/>
     </defs>
     <use xlink:href="#YuGothic-Regular-78"/>
     <use x="74.804688" xlink:href="#YuGothic-Regular-111"/>
     <use x="130.908203" xlink:href="#YuGothic-Regular-114"/>
     <use x="167.285156" xlink:href="#YuGothic-Regular-109"/>
     <use x="253.369141" xlink:href="#YuGothic-Regular-97"/>
     <use x="309.179688" xlink:href="#YuGothic-Regular-108"/>
    </g>
   </g>
   <g id="legend_2">
    <g id="patch_13">
     <path d="M 590.585 74.5475 
L 692.825 74.5475 
Q 696.025 74.5475 696.025 71.3475 
L 696.025 49.36 
Q 696.025 46.16 692.825 46.16 
L 590.585 46.16 
Q 587.385 46.16 587.385 49.36 
L 587.385 71.3475 
Q 587.385 74.5475 590.585 74.5475 
z
" style="fill:#ffffff;opacity:0.8;stroke:#cccccc;stroke-linejoin:miter;"/>
    </g>
    <g id="line2d_35">
     <path d="M 593.785 59.1875 
L 625.785 59.1875 
" style="fill:none;stroke:#1a1a1a;stroke-linecap:square;stroke-width:3;"/>
    </g>
    <g id="line2d_36"/>
    <g id="text_32">
     <!-- $\gamma =$1.0 -->
     <g transform="translate(638.585 64.7875)scale(0.16 -0.16)">
      <use transform="translate(0 0.90625)" xlink:href="#DejaVuSans-Oblique-947"/>
      <use transform="translate(78.662109 0.90625)" xlink:href="#DejaVuSans-61"/>
      <use transform="translate(181.933594 0.90625)" xlink:href="#YuGothic-Regular-49"/>
      <use transform="translate(237.548828 0.90625)" xlink:href="#YuGothic-Regular-46"/>
      <use transform="translate(263.330078 0.90625)" xlink:href="#YuGothic-Regular-48"/>
     </g>
    </g>
   </g>
  </g>
  <g id="axes_3">
   <g id="patch_14">
    <path d="M 780.14 300.568 
L 1058.265 300.568 
L 1058.265 38.16 
L 780.14 38.16 
z
" style="fill:#ffffff;"/>
   </g>
   <g id="matplotlib.axis_5">
    <g id="xtick_9">
     <g id="line2d_37">
      <g>
       <use style="stroke:#000000;stroke-width:0.8;" x="819.872143" xlink:href="#m59a2fa6818" y="300.568"/>
      </g>
     </g>
     <g id="text_33">
      <!-- −2 -->
      <g transform="translate(807.423393 319.7955)scale(0.16 -0.16)">
       <use xlink:href="#YuGothic-Regular-8722"/>
       <use x="100" xlink:href="#YuGothic-Regular-50"/>
      </g>
     </g>
    </g>
    <g id="xtick_10">
     <g id="line2d_38">
      <g>
       <use style="stroke:#000000;stroke-width:0.8;" x="899.336429" xlink:href="#m59a2fa6818" y="300.568"/>
      </g>
     </g>
     <g id="text_34">
      <!-- 0 -->
      <g transform="translate(894.887679 319.7955)scale(0.16 -0.16)">
       <use xlink:href="#YuGothic-Regular-48"/>
      </g>
     </g>
    </g>
    <g id="xtick_11">
     <g id="line2d_39">
      <g>
       <use style="stroke:#000000;stroke-width:0.8;" x="978.800714" xlink:href="#m59a2fa6818" y="300.568"/>
      </g>
     </g>
     <g id="text_35">
      <!-- 2 -->
      <g transform="translate(974.351964 319.7955)scale(0.16 -0.16)">
       <use xlink:href="#YuGothic-Regular-50"/>
      </g>
     </g>
    </g>
    <g id="xtick_12">
     <g id="line2d_40">
      <g>
       <use style="stroke:#000000;stroke-width:0.8;" x="1058.265" xlink:href="#m59a2fa6818" y="300.568"/>
      </g>
     </g>
     <g id="text_36">
      <!-- 4 -->
      <g transform="translate(1053.81625 319.7955)scale(0.16 -0.16)">
       <use xlink:href="#YuGothic-Regular-52"/>
      </g>
     </g>
    </g>
    <g id="text_37">
     <!-- d$_x$ -->
     <g transform="translate(910.9625 338.663)scale(0.16 -0.16)">
      <use transform="translate(0 0.578125)" xlink:href="#YuGothic-Regular-100"/>
      <use transform="translate(58.769531 -15.828125)scale(0.7)" xlink:href="#DejaVuSans-Oblique-120"/>
     </g>
    </g>
   </g>
   <g id="matplotlib.axis_6">
    <g id="ytick_17">
     <g id="line2d_41">
      <g>
       <use style="stroke:#000000;stroke-width:0.8;" x="780.14" xlink:href="#ma54bd6d277" y="300.568"/>
      </g>
     </g>
     <g id="text_38">
      <!-- −3 -->
      <g transform="translate(748.2425 306.68175)scale(0.16 -0.16)">
       <use xlink:href="#YuGothic-Regular-8722"/>
       <use x="100" xlink:href="#YuGothic-Regular-51"/>
      </g>
     </g>
    </g>
    <g id="ytick_18">
     <g id="line2d_42">
      <g>
       <use style="stroke:#000000;stroke-width:0.8;" x="780.14" xlink:href="#ma54bd6d277" y="263.081143"/>
      </g>
     </g>
     <g id="text_39">
      <!-- −2 -->
      <g transform="translate(748.2425 269.194893)scale(0.16 -0.16)">
       <use xlink:href="#YuGothic-Regular-8722"/>
       <use x="100" xlink:href="#YuGothic-Regular-50"/>
      </g>
     </g>
    </g>
    <g id="ytick_19">
     <g id="line2d_43">
      <g>
       <use style="stroke:#000000;stroke-width:0.8;" x="780.14" xlink:href="#ma54bd6d277" y="225.594286"/>
      </g>
     </g>
     <g id="text_40">
      <!-- −1 -->
      <g transform="translate(748.2425 231.708036)scale(0.16 -0.16)">
       <use xlink:href="#YuGothic-Regular-8722"/>
       <use x="100" xlink:href="#YuGothic-Regular-49"/>
      </g>
     </g>
    </g>
    <g id="ytick_20">
     <g id="line2d_44">
      <g>
       <use style="stroke:#000000;stroke-width:0.8;" x="780.14" xlink:href="#ma54bd6d277" y="188.107429"/>
      </g>
     </g>
     <g id="text_41">
      <!-- 0 -->
      <g transform="translate(764.2425 194.221179)scale(0.16 -0.16)">
       <use xlink:href="#YuGothic-Regular-48"/>
      </g>
     </g>
    </g>
    <g id="ytick_21">
     <g id="line2d_45">
      <g>
       <use style="stroke:#000000;stroke-width:0.8;" x="780.14" xlink:href="#ma54bd6d277" y="150.620571"/>
      </g>
     </g>
     <g id="text_42">
      <!-- 1 -->
      <g transform="translate(764.2425 156.734321)scale(0.16 -0.16)">
       <use xlink:href="#YuGothic-Regular-49"/>
      </g>
     </g>
    </g>
    <g id="ytick_22">
     <g id="line2d_46">
      <g>
       <use style="stroke:#000000;stroke-width:0.8;" x="780.14" xlink:href="#ma54bd6d277" y="113.133714"/>
      </g>
     </g>
     <g id="text_43">
      <!-- 2 -->
      <g transform="translate(764.2425 119.247464)scale(0.16 -0.16)">
       <use xlink:href="#YuGothic-Regular-50"/>
      </g>
     </g>
    </g>
    <g id="ytick_23">
     <g id="line2d_47">
      <g>
       <use style="stroke:#000000;stroke-width:0.8;" x="780.14" xlink:href="#ma54bd6d277" y="75.646857"/>
      </g>
     </g>
     <g id="text_44">
      <!-- 3 -->
      <g transform="translate(764.2425 81.760607)scale(0.16 -0.16)">
       <use xlink:href="#YuGothic-Regular-51"/>
      </g>
     </g>
    </g>
    <g id="ytick_24">
     <g id="line2d_48">
      <g>
       <use style="stroke:#000000;stroke-width:0.8;" x="780.14" xlink:href="#ma54bd6d277" y="38.16"/>
      </g>
     </g>
     <g id="text_45">
      <!-- 4 -->
      <g transform="translate(764.2425 44.27375)scale(0.16 -0.16)">
       <use xlink:href="#YuGothic-Regular-52"/>
      </g>
     </g>
    </g>
    <g id="text_46">
     <!-- d$_y$ -->
     <g transform="translate(739.2825 177.604)rotate(-90)scale(0.16 -0.16)">
      <use transform="translate(0 0.578125)" xlink:href="#YuGothic-Regular-100"/>
      <use transform="translate(58.769531 -15.828125)scale(0.7)" xlink:href="#DejaVuSans-Oblique-121"/>
     </g>
    </g>
   </g>
   <g id="line2d_49">
    <path clip-path="url(#p1d0d40246a)" d="M 859.604286 188.107429 
L 859.76267 192.838692 
L 860.23719 197.551096 
L 861.025956 202.225854 
L 862.125822 206.844332 
L 863.532405 211.388119 
L 865.240097 215.839102 
L 867.242091 220.179539 
L 869.530406 224.392127 
L 872.095921 228.460074 
L 874.928409 232.367163 
L 878.016578 236.09782 
L 881.348118 239.637173 
L 884.909749 242.971113 
L 888.687273 246.086351 
L 892.665631 248.970468 
L 896.828965 251.611966 
L 901.160679 254.000318 
L 905.643505 256.126 
L 910.259572 257.980541 
L 914.990481 259.556547 
L 919.817372 260.847736 
L 924.721005 261.84896 
L 929.68183 262.556229 
L 934.680074 262.966724 
L 939.695812 263.078807 
L 944.70905 262.892033 
L 949.699803 262.407145 
L 954.648176 261.626076 
L 959.534445 260.551941 
L 964.339131 259.189021 
L 969.043081 257.542748 
L 973.627544 255.619686 
L 978.074244 253.427501 
L 982.365457 250.97493 
L 986.484075 248.271751 
L 990.413682 245.32874 
L 994.138611 242.157627 
L 997.644016 238.771055 
L 1000.915921 235.182522 
L 1003.941285 231.406334 
L 1006.708047 227.457545 
L 1009.205178 223.351894 
L 1011.422725 219.105748 
L 1013.351846 214.736034 
L 1014.984852 210.260171 
L 1016.315234 205.696 
L 1017.337688 201.061716 
L 1018.048139 196.375792 
L 1018.443753 191.656908 
L 1018.522955 186.923875 
L 1018.285428 182.19556 
L 1017.73212 177.490812 
L 1016.865236 172.828384 
L 1015.688231 168.226863 
L 1014.205798 163.704592 
L 1012.423846 159.279598 
L 1010.349479 154.96952 
L 1007.990964 150.791539 
L 1005.357705 146.762311 
L 1002.460198 142.897896 
L 999.309993 139.2137 
L 995.919649 135.724408 
L 992.302679 132.443931 
L 988.473503 129.385344 
L 984.447383 126.560841 
L 980.240371 123.981681 
L 975.869236 121.658145 
L 971.351403 119.599495 
L 966.70488 117.813938 
L 961.948192 116.308591 
L 957.100298 115.089455 
L 952.180525 114.161391 
L 947.208483 113.528097 
L 942.203994 113.192099 
L 937.187005 113.154734 
L 932.177518 113.416154 
L 927.1955 113.975314 
L 922.260811 114.829987 
L 917.393124 115.976765 
L 912.61184 117.411078 
L 907.936022 119.127206 
L 903.384306 121.11831 
L 898.974839 123.376453 
L 894.725197 125.892632 
L 890.652321 128.656817 
L 886.772446 131.65799 
L 883.101039 134.884187 
L 879.652734 138.322547 
L 876.441279 141.959365 
L 873.479475 145.780142 
L 870.779128 149.769649 
L 868.351002 153.911981 
L 866.204778 158.190626 
L 864.34901 162.588528 
L 862.791096 167.088156 
L 861.537247 171.671573 
L 860.59246 176.320508 
L 859.960502 181.016429 
L 859.643892 185.740617 
L 859.604286 188.107429 
L 859.604286 188.107429 
" style="fill:none;stroke:#1a1a1a;stroke-linecap:square;stroke-width:3;"/>
   </g>
   <g id="line2d_50">
    <path clip-path="url(#p1d0d40246a)" d="M 780.14 188.107429 
L 1058.265 188.107429 
" style="fill:none;stroke:#1a1a1a;stroke-linecap:square;stroke-width:1.5;"/>
   </g>
   <g id="line2d_51">
    <path clip-path="url(#p1d0d40246a)" d="M 899.336429 300.568 
L 899.336429 38.16 
" style="fill:none;stroke:#1a1a1a;stroke-linecap:square;stroke-width:1.5;"/>
   </g>
   <g id="line2d_52">
    <g clip-path="url(#p1d0d40246a)">
     <use style="fill:#80b2ff;stroke:#80b2ff;" x="899.336429" xlink:href="#m28cec8a5b9" y="188.107429"/>
    </g>
   </g>
   <g id="patch_15">
    <path d="M 780.14 300.568 
L 780.14 38.16 
" style="fill:none;stroke:#000000;stroke-linecap:square;stroke-linejoin:miter;stroke-width:0.8;"/>
   </g>
   <g id="patch_16">
    <path d="M 1058.265 300.568 
L 1058.265 38.16 
" style="fill:none;stroke:#000000;stroke-linecap:square;stroke-linejoin:miter;stroke-width:0.8;"/>
   </g>
   <g id="patch_17">
    <path d="M 780.14 300.568 
L 1058.265 300.568 
" style="fill:none;stroke:#000000;stroke-linecap:square;stroke-linejoin:miter;stroke-width:0.8;"/>
   </g>
   <g id="patch_18">
    <path d="M 780.14 38.16 
L 1058.265 38.16 
" style="fill:none;stroke:#000000;stroke-linecap:square;stroke-linejoin:miter;stroke-width:0.8;"/>
   </g>
   <g id="text_47">
    <!-- Topological -->
    <g transform="translate(868.3135 32.16)scale(0.192 -0.192)">
     <defs>
      <path d="M 16.015625 52.203125 
L 16.015625 44.1875 
Q 21.921875 53.421875 31.390625 53.421875 
Q 40.828125 53.421875 46.296875 45.65625 
Q 51.21875 38.625 51.21875 27.390625 
Q 51.21875 14.5 44.578125 7.125 
Q 39.0625 0.984375 30.90625 0.984375 
Q 21.578125 0.984375 16.21875 10.109375 
L 16.21875 -15.921875 
L 10.015625 -15.921875 
L 10.015625 52.203125 
z
M 16.21875 37.984375 
L 16.21875 16.015625 
Q 21.828125 6.296875 30.03125 6.296875 
Q 37.015625 6.296875 41.0625 12.453125 
Q 44.828125 18.0625 44.828125 27.34375 
Q 44.828125 37.890625 40.328125 43.5625 
Q 36.578125 48.25 30.609375 48.25 
Q 21.734375 48.25 16.21875 37.984375 
z
" id="YuGothic-Regular-112"/>
      <path d="M 50.484375 58.296875 
L 50 52.59375 
Q 46 52.59375 43.5 51.515625 
Q 41.5 50.640625 39.40625 48.578125 
Q 44.671875 44.34375 44.671875 36.921875 
Q 44.671875 28.859375 38.8125 24.265625 
Q 33.890625 20.40625 26.375 20.40625 
Q 21.875 20.40625 18.0625 21.96875 
Q 13.09375 19.1875 13.09375 16.015625 
Q 13.09375 13.328125 15.234375 12.359375 
Q 17.328125 11.421875 23.6875 10.796875 
L 33.5 9.8125 
Q 43.65625 8.734375 47.5625 5.28125 
Q 50.484375 2.6875 50.484375 -2 
Q 50.484375 -8.59375 43.84375 -12.40625 
Q 37.59375 -15.921875 27.09375 -15.921875 
Q 15.921875 -15.921875 10.015625 -12.109375 
Q 4.984375 -8.84375 4.984375 -3.609375 
Q 4.984375 0.140625 8.0625 3.125 
Q 10.6875 5.71875 15.1875 7.171875 
Q 7.5625 8.84375 7.5625 14.5 
Q 7.5625 19.4375 14.5 24.171875 
Q 8.203125 28.71875 8.203125 36.8125 
Q 8.203125 44.734375 14.265625 49.46875 
Q 19.28125 53.421875 26.46875 53.421875 
Q 32.078125 53.421875 36.078125 51.125 
Q 38.96875 55.171875 42.578125 56.84375 
Q 45.796875 58.296875 50.484375 58.296875 
z
M 26.46875 49.03125 
Q 20.84375 49.03125 17.328125 45.40625 
Q 14.109375 42.09375 14.109375 36.8125 
Q 14.109375 30.90625 18.171875 27.546875 
Q 21.484375 24.8125 26.421875 24.8125 
Q 32.078125 24.8125 35.546875 28.375 
Q 38.765625 31.640625 38.765625 36.8125 
Q 38.765625 42.875 34.671875 46.234375 
Q 31.34375 49.03125 26.46875 49.03125 
z
M 20.453125 6 
Q 10.6875 3.328125 10.6875 -2.828125 
Q 10.6875 -7.375 15.921875 -9.671875 
Q 20.21875 -11.53125 27.296875 -11.53125 
Q 36.1875 -11.53125 40.921875 -8.640625 
Q 44.78125 -6.25 44.78125 -2.640625 
Q 44.78125 0.6875 41.9375 2.34375 
Q 39.015625 4.046875 31.984375 4.78125 
z
" id="YuGothic-Regular-103"/>
      <path d="M 46.578125 39.109375 
L 40.484375 37.3125 
Q 37.796875 48.34375 27.78125 48.34375 
Q 20.40625 48.34375 16.40625 42.09375 
Q 12.890625 36.53125 12.890625 27.296875 
Q 12.890625 16.546875 17.484375 10.890625 
Q 21.390625 6.0625 27.78125 6.0625 
Q 38.328125 6.0625 41.015625 17.28125 
L 46.96875 15.28125 
Q 42.28125 0.984375 27.78125 0.984375 
Q 17.4375 0.984375 11.625 8.9375 
Q 6.5 15.921875 6.5 27.09375 
Q 6.5 39.890625 13.1875 47.171875 
Q 18.953125 53.421875 27.78125 53.421875 
Q 35.15625 53.421875 40.140625 49.3125 
Q 44.671875 45.65625 46.578125 39.109375 
z
" id="YuGothic-Regular-99"/>
     </defs>
     <use xlink:href="#YuGothic-Regular-84"/>
     <use x="62.890625" xlink:href="#YuGothic-Regular-111"/>
     <use x="118.994141" xlink:href="#YuGothic-Regular-112"/>
     <use x="177.001953" xlink:href="#YuGothic-Regular-111"/>
     <use x="233.105469" xlink:href="#YuGothic-Regular-108"/>
     <use x="259.326172" xlink:href="#YuGothic-Regular-111"/>
     <use x="315.429688" xlink:href="#YuGothic-Regular-103"/>
     <use x="370.214844" xlink:href="#YuGothic-Regular-105"/>
     <use x="396.435547" xlink:href="#YuGothic-Regular-99"/>
     <use x="448.046875" xlink:href="#YuGothic-Regular-97"/>
     <use x="503.857422" xlink:href="#YuGothic-Regular-108"/>
    </g>
   </g>
   <g id="legend_3">
    <g id="patch_19">
     <path d="M 944.825 74.5475 
L 1047.065 74.5475 
Q 1050.265 74.5475 1050.265 71.3475 
L 1050.265 49.36 
Q 1050.265 46.16 1047.065 46.16 
L 944.825 46.16 
Q 941.625 46.16 941.625 49.36 
L 941.625 71.3475 
Q 941.625 74.5475 944.825 74.5475 
z
" style="fill:#ffffff;opacity:0.8;stroke:#cccccc;stroke-linejoin:miter;"/>
    </g>
    <g id="line2d_53">
     <path d="M 948.025 59.1875 
L 980.025 59.1875 
" style="fill:none;stroke:#1a1a1a;stroke-linecap:square;stroke-width:3;"/>
    </g>
    <g id="line2d_54"/>
    <g id="text_48">
     <!-- $\gamma =$2.0 -->
     <g transform="translate(992.825 64.7875)scale(0.16 -0.16)">
      <use transform="translate(0 0.90625)" xlink:href="#DejaVuSans-Oblique-947"/>
      <use transform="translate(78.662109 0.90625)" xlink:href="#DejaVuSans-61"/>
      <use transform="translate(181.933594 0.90625)" xlink:href="#YuGothic-Regular-50"/>
      <use transform="translate(237.548828 0.90625)" xlink:href="#YuGothic-Regular-46"/>
      <use transform="translate(263.330078 0.90625)" xlink:href="#YuGothic-Regular-48"/>
     </g>
    </g>
   </g>
  </g>
 </g>
 <defs>
  <clipPath id="p09c3c08c88">
   <rect height="262.408" width="278.125" x="71.66" y="38.16"/>
  </clipPath>
  <clipPath id="pa56fe6131a">
   <rect height="262.408" width="278.125" x="425.9" y="38.16"/>
  </clipPath>
  <clipPath id="p1d0d40246a">
   <rect height="262.408" width="278.125" x="780.14" y="38.16"/>
  </clipPath>
 </defs>
</svg>
