<?xml version="1.0" encoding="utf-8" standalone="no"?>
<!DOCTYPE svg PUBLIC "-//W3C//DTD SVG 1.1//EN"
  "http://www.w3.org/Graphics/SVG/1.1/DTD/svg11.dtd">
<!-- Created with matplotlib (https://matplotlib.org/) -->
<svg height="576pt" version="1.1" viewBox="0 0 720 576" width="720pt" xmlns="http://www.w3.org/2000/svg" xmlns:xlink="http://www.w3.org/1999/xlink">
 <metadata>
  <rdf:RDF xmlns:cc="http://creativecommons.org/ns#" xmlns:dc="http://purl.org/dc/elements/1.1/" xmlns:rdf="http://www.w3.org/1999/02/22-rdf-syntax-ns#">
   <cc:Work>
    <dc:type rdf:resource="http://purl.org/dc/dcmitype/StillImage"/>
    <dc:date>2021-08-23T13:12:10.270060</dc:date>
    <dc:format>image/svg+xml</dc:format>
    <dc:creator>
     <cc:Agent>
      <dc:title>Matplotlib v3.3.4, https://matplotlib.org/</dc:title>
     </cc:Agent>
    </dc:creator>
   </cc:Work>
  </rdf:RDF>
 </metadata>
 <defs>
  <style type="text/css">*{stroke-linecap:butt;stroke-linejoin:round;}</style>
 </defs>
 <g id="figure_1">
  <g id="patch_1">
   <path d="M 0 576 
L 720 576 
L 720 0 
L 0 0 
z
" style="fill:#ffffff;"/>
  </g>
  <g id="axes_1">
   <g id="patch_2">
    <path d="M 81.32 236.464 
L 702.72 236.464 
L 702.72 38.16 
L 81.32 38.16 
z
" style="fill:#ffffff;"/>
   </g>
   <g id="patch_3">
    <path clip-path="url(#pbf1592ee9a)" d="M 109.565455 167.359436 
L 138.168446 167.359436 
L 138.168446 47.173818 
L 109.565455 47.173818 
z
" style="fill:#ff9999;"/>
   </g>
   <g id="patch_4">
    <path clip-path="url(#pbf1592ee9a)" d="M 145.319194 167.359436 
L 173.922186 167.359436 
L 173.922186 168.063711 
L 145.319194 168.063711 
z
" style="fill:#ff9999;"/>
   </g>
   <g id="patch_5">
    <path clip-path="url(#pbf1592ee9a)" d="M 181.072934 167.359436 
L 209.675926 167.359436 
L 209.675926 227.450182 
L 181.072934 227.450182 
z
" style="fill:#ff9999;"/>
   </g>
   <g id="patch_6">
    <path clip-path="url(#pbf1592ee9a)" d="M 216.826674 167.359436 
L 245.429666 167.359436 
L 245.429666 165.598762 
L 216.826674 165.598762 
z
" style="fill:#ff9999;"/>
   </g>
   <g id="patch_7">
    <path clip-path="url(#pbf1592ee9a)" d="M 252.580414 167.359436 
L 281.183406 167.359436 
L 281.183406 137.319222 
L 252.580414 137.319222 
z
" style="fill:#ff9999;"/>
   </g>
   <g id="patch_8">
    <path clip-path="url(#pbf1592ee9a)" d="M 288.334154 167.359436 
L 316.937146 167.359436 
L 316.937146 171.056816 
L 288.334154 171.056816 
z
" style="fill:#ff9999;"/>
   </g>
   <g id="patch_9">
    <path clip-path="url(#pbf1592ee9a)" d="M 324.087894 167.359436 
L 352.690886 167.359436 
L 352.690886 182.36871 
L 324.087894 182.36871 
z
" style="fill:#ff9999;"/>
   </g>
   <g id="patch_10">
    <path clip-path="url(#pbf1592ee9a)" d="M 359.841634 167.359436 
L 388.444626 167.359436 
L 388.444626 159.876723 
L 359.841634 159.876723 
z
" style="fill:#ff9999;"/>
   </g>
   <g id="patch_11">
    <path clip-path="url(#pbf1592ee9a)" d="M 395.595374 167.359436 
L 424.198366 167.359436 
L 424.198366 159.876723 
L 395.595374 159.876723 
z
" style="fill:#ff9999;"/>
   </g>
   <g id="patch_12">
    <path clip-path="url(#pbf1592ee9a)" d="M 431.349114 167.359436 
L 459.952106 167.359436 
L 459.952106 182.36871 
L 431.349114 182.36871 
z
" style="fill:#ff9999;"/>
   </g>
   <g id="patch_13">
    <path clip-path="url(#pbf1592ee9a)" d="M 467.102854 167.359436 
L 495.705846 167.359436 
L 495.705846 171.056816 
L 467.102854 171.056816 
z
" style="fill:#ff9999;"/>
   </g>
   <g id="patch_14">
    <path clip-path="url(#pbf1592ee9a)" d="M 502.856594 167.359436 
L 531.459586 167.359436 
L 531.459586 137.319222 
L 502.856594 137.319222 
z
" style="fill:#ff9999;"/>
   </g>
   <g id="patch_15">
    <path clip-path="url(#pbf1592ee9a)" d="M 538.610334 167.359436 
L 567.213326 167.359436 
L 567.213326 165.598762 
L 538.610334 165.598762 
z
" style="fill:#ff9999;"/>
   </g>
   <g id="patch_16">
    <path clip-path="url(#pbf1592ee9a)" d="M 574.364074 167.359436 
L 602.967066 167.359436 
L 602.967066 227.450182 
L 574.364074 227.450182 
z
" style="fill:#ff9999;"/>
   </g>
   <g id="patch_17">
    <path clip-path="url(#pbf1592ee9a)" d="M 610.117814 167.359436 
L 638.720806 167.359436 
L 638.720806 168.063711 
L 610.117814 168.063711 
z
" style="fill:#ff9999;"/>
   </g>
   <g id="patch_18">
    <path clip-path="url(#pbf1592ee9a)" d="M 645.871554 167.359436 
L 674.474545 167.359436 
L 674.474545 47.173818 
L 645.871554 47.173818 
z
" style="fill:#ff9999;"/>
   </g>
   <g id="matplotlib.axis_1">
    <g id="xtick_1">
     <g id="line2d_1">
      <defs>
       <path d="M 0 0 
L 0 3.5 
" id="m1835295e54" style="stroke:#000000;stroke-width:0.8;"/>
      </defs>
      <g>
       <use style="stroke:#000000;stroke-width:0.8;" x="123.866951" xlink:href="#m1835295e54" y="236.464"/>
      </g>
     </g>
     <g id="text_1">
      <!-- 1$_A$ -->
      <g transform="translate(115.226951 255.519)scale(0.16 -0.16)">
       <defs>
        <path d="M 32.234375 74.90625 
L 32.234375 7.515625 
L 45.703125 7.515625 
L 45.703125 2.203125 
L 11.625 2.203125 
L 11.625 7.515625 
L 26.03125 7.515625 
L 26.03125 68.109375 
Q 19.671875 63.765625 11.328125 60.59375 
L 10.203125 66.40625 
Q 18.5 69.1875 27.09375 74.90625 
z
" id="YuGothic-Regular-49"/>
        <path d="M 36.8125 72.90625 
L 48 72.90625 
L 61.53125 0 
L 51.21875 0 
L 48.1875 18.703125 
L 15.375 18.703125 
L 5.078125 0 
L -5.328125 0 
z
M 40.375 63.1875 
L 19.921875 26.90625 
L 46.6875 26.90625 
z
" id="DejaVuSans-Oblique-65"/>
       </defs>
       <use transform="translate(0 0.09375)" xlink:href="#YuGothic-Regular-49"/>
       <use transform="translate(56.572266 -16.3125)scale(0.7)" xlink:href="#DejaVuSans-Oblique-65"/>
      </g>
     </g>
    </g>
    <g id="xtick_2">
     <g id="line2d_2">
      <g>
       <use style="stroke:#000000;stroke-width:0.8;" x="159.62069" xlink:href="#m1835295e54" y="236.464"/>
      </g>
     </g>
     <g id="text_2">
      <!-- 1$_B$ -->
      <g transform="translate(150.98069 255.519)scale(0.16 -0.16)">
       <defs>
        <path d="M 16.890625 72.90625 
L 42.09375 72.90625 
Q 52.34375 72.90625 57.421875 69.09375 
Q 62.5 65.28125 62.5 57.625 
Q 62.5 50.59375 58.125 45.484375 
Q 53.765625 40.375 46.6875 39.3125 
Q 52.734375 37.9375 55.765625 34.078125 
Q 58.796875 30.21875 58.796875 23.78125 
Q 58.796875 12.796875 50.65625 6.390625 
Q 42.53125 0 28.421875 0 
L 2.6875 0 
z
M 19.28125 34.8125 
L 14.109375 8.109375 
L 29.984375 8.109375 
Q 38.921875 8.109375 43.75 12.203125 
Q 48.578125 16.3125 48.578125 23.78125 
Q 48.578125 29.546875 45.375 32.171875 
Q 42.1875 34.8125 35.109375 34.8125 
z
M 25.09375 64.796875 
L 20.796875 42.828125 
L 35.5 42.828125 
Q 43.359375 42.828125 47.78125 46.234375 
Q 52.203125 49.65625 52.203125 55.71875 
Q 52.203125 60.453125 49.21875 62.625 
Q 46.234375 64.796875 39.703125 64.796875 
z
" id="DejaVuSans-Oblique-66"/>
       </defs>
       <use transform="translate(0 0.09375)" xlink:href="#YuGothic-Regular-49"/>
       <use transform="translate(56.572266 -16.3125)scale(0.7)" xlink:href="#DejaVuSans-Oblique-66"/>
      </g>
     </g>
    </g>
    <g id="xtick_3">
     <g id="line2d_3">
      <g>
       <use style="stroke:#000000;stroke-width:0.8;" x="195.37443" xlink:href="#m1835295e54" y="236.464"/>
      </g>
     </g>
     <g id="text_3">
      <!-- 2$_A$ -->
      <g transform="translate(186.73443 255.624)scale(0.16 -0.16)">
       <defs>
        <path d="M 7.171875 56.203125 
Q 9.1875 66.0625 15.4375 70.953125 
Q 20.703125 75.09375 28.421875 75.09375 
Q 37.59375 75.09375 42.96875 69.578125 
Q 47.796875 64.65625 47.796875 56.6875 
Q 47.796875 50.296875 44.34375 44.921875 
Q 41.0625 39.9375 32.71875 32.421875 
Q 18.609375 20.0625 12.890625 7.71875 
L 47.90625 7.71875 
L 47.90625 2.203125 
L 6.59375 2.203125 
L 6.59375 7.125 
Q 12.796875 21.96875 28.21875 36.078125 
Q 36.421875 43.75 39.015625 48.25 
Q 41.21875 52.046875 41.21875 56.6875 
Q 41.21875 63.09375 37.15625 66.609375 
Q 33.6875 69.578125 28.328125 69.578125 
Q 16.015625 69.578125 13.484375 54.59375 
z
" id="YuGothic-Regular-50"/>
       </defs>
       <use transform="translate(0 0.90625)" xlink:href="#YuGothic-Regular-50"/>
       <use transform="translate(56.572266 -15.5)scale(0.7)" xlink:href="#DejaVuSans-Oblique-65"/>
      </g>
     </g>
    </g>
    <g id="xtick_4">
     <g id="line2d_4">
      <g>
       <use style="stroke:#000000;stroke-width:0.8;" x="231.12817" xlink:href="#m1835295e54" y="236.464"/>
      </g>
     </g>
     <g id="text_4">
      <!-- 2$_B$ -->
      <g transform="translate(222.48817 255.624)scale(0.16 -0.16)">
       <use transform="translate(0 0.90625)" xlink:href="#YuGothic-Regular-50"/>
       <use transform="translate(56.572266 -15.5)scale(0.7)" xlink:href="#DejaVuSans-Oblique-66"/>
      </g>
     </g>
    </g>
    <g id="xtick_5">
     <g id="line2d_5">
      <g>
       <use style="stroke:#000000;stroke-width:0.8;" x="266.88191" xlink:href="#m1835295e54" y="236.464"/>
      </g>
     </g>
     <g id="text_5">
      <!-- 3$_A$ -->
      <g transform="translate(258.24191 255.624)scale(0.16 -0.16)">
       <defs>
        <path d="M 7.234375 61.28125 
Q 10.015625 68.40625 15.828125 71.96875 
Q 20.796875 75.09375 27.4375 75.09375 
Q 36.421875 75.09375 42 69.625 
Q 46.921875 64.84375 46.921875 57.71875 
Q 46.921875 50.640625 42.78125 46.09375 
Q 39.203125 42.234375 33.203125 40.828125 
L 33.203125 40.1875 
Q 41.015625 38.421875 45.0625 33.0625 
Q 48.640625 28.328125 48.640625 21.6875 
Q 48.640625 11.71875 42 5.90625 
Q 36.28125 0.875 27.640625 0.875 
Q 11.859375 0.875 5.8125 14.5 
L 11.8125 17.09375 
Q 14.40625 10.9375 18.609375 8.453125 
Q 22.171875 6.296875 27.640625 6.296875 
Q 34.625 6.296875 38.578125 10.984375 
Q 42.046875 15.09375 42.046875 21.484375 
Q 42.046875 29.5 37.015625 33.546875 
Q 32.46875 37.203125 24.421875 37.203125 
L 18.796875 37.203125 
L 18.796875 42.921875 
L 23.828125 42.921875 
Q 32.375 42.921875 36.71875 47.265625 
Q 40.4375 50.984375 40.4375 57.171875 
Q 40.4375 63.421875 36.234375 66.84375 
Q 32.71875 69.671875 27.296875 69.671875 
Q 22.015625 69.671875 18.265625 66.65625 
Q 14.796875 63.875 13.234375 58.890625 
z
" id="YuGothic-Regular-51"/>
       </defs>
       <use transform="translate(0 0.90625)" xlink:href="#YuGothic-Regular-51"/>
       <use transform="translate(56.572266 -15.5)scale(0.7)" xlink:href="#DejaVuSans-Oblique-65"/>
      </g>
     </g>
    </g>
    <g id="xtick_6">
     <g id="line2d_6">
      <g>
       <use style="stroke:#000000;stroke-width:0.8;" x="302.63565" xlink:href="#m1835295e54" y="236.464"/>
      </g>
     </g>
     <g id="text_6">
      <!-- 3$_B$ -->
      <g transform="translate(293.99565 255.624)scale(0.16 -0.16)">
       <use transform="translate(0 0.90625)" xlink:href="#YuGothic-Regular-51"/>
       <use transform="translate(56.572266 -15.5)scale(0.7)" xlink:href="#DejaVuSans-Oblique-66"/>
      </g>
     </g>
    </g>
    <g id="xtick_7">
     <g id="line2d_7">
      <g>
       <use style="stroke:#000000;stroke-width:0.8;" x="338.38939" xlink:href="#m1835295e54" y="236.464"/>
      </g>
     </g>
     <g id="text_7">
      <!-- 4$_A$ -->
      <g transform="translate(329.74939 255.519)scale(0.16 -0.16)">
       <defs>
        <path d="M 39.890625 74.8125 
L 39.890625 24.5625 
L 50.484375 24.5625 
L 50.484375 19.390625 
L 39.890625 19.390625 
L 39.890625 2.203125 
L 34.1875 2.203125 
L 34.1875 19.390625 
L 4.78125 19.390625 
L 4.78125 24.265625 
L 31.203125 74.8125 
z
M 34.1875 24.5625 
L 34.1875 54.5 
Q 34.1875 57.46875 34.375 69.671875 
L 33.40625 69.671875 
Q 30.375 62.3125 26.859375 55.671875 
L 10.890625 24.5625 
z
" id="YuGothic-Regular-52"/>
       </defs>
       <use transform="translate(0 0.1875)" xlink:href="#YuGothic-Regular-52"/>
       <use transform="translate(56.572266 -16.21875)scale(0.7)" xlink:href="#DejaVuSans-Oblique-65"/>
      </g>
     </g>
    </g>
    <g id="xtick_8">
     <g id="line2d_8">
      <g>
       <use style="stroke:#000000;stroke-width:0.8;" x="374.14313" xlink:href="#m1835295e54" y="236.464"/>
      </g>
     </g>
     <g id="text_8">
      <!-- 4$_B$ -->
      <g transform="translate(365.50313 255.519)scale(0.16 -0.16)">
       <use transform="translate(0 0.1875)" xlink:href="#YuGothic-Regular-52"/>
       <use transform="translate(56.572266 -16.21875)scale(0.7)" xlink:href="#DejaVuSans-Oblique-66"/>
      </g>
     </g>
    </g>
    <g id="xtick_9">
     <g id="line2d_9">
      <g>
       <use style="stroke:#000000;stroke-width:0.8;" x="409.89687" xlink:href="#m1835295e54" y="236.464"/>
      </g>
     </g>
     <g id="text_9">
      <!-- 5$_A$ -->
      <g transform="translate(401.25687 255.519)scale(0.16 -0.16)">
       <defs>
        <path d="M 45.40625 73.875 
L 45.40625 68.359375 
L 15.875 68.359375 
L 14.984375 49.359375 
Q 14.890625 47.21875 14.40625 40.96875 
Q 16.65625 44.625 20.703125 46.6875 
Q 24.3125 48.484375 28.421875 48.484375 
Q 37.453125 48.484375 43.015625 41.453125 
Q 48 35.109375 48 25.390625 
Q 48 13.28125 40.96875 6.5 
Q 35.203125 0.875 26.8125 0.875 
Q 12.0625 0.875 6.78125 14.203125 
L 12.890625 16.796875 
Q 16.546875 6.296875 26.8125 6.296875 
Q 33.9375 6.296875 37.890625 11.96875 
Q 41.40625 17 41.40625 25.09375 
Q 41.40625 34.1875 37.203125 38.96875 
Q 33.546875 43.0625 27.484375 43.0625 
Q 22.609375 43.0625 18.890625 40.09375 
Q 15.671875 37.453125 14.109375 33.0625 
L 8.890625 33.890625 
L 10.59375 73.875 
z
" id="YuGothic-Regular-53"/>
       </defs>
       <use transform="translate(0 0.125)" xlink:href="#YuGothic-Regular-53"/>
       <use transform="translate(56.572266 -16.28125)scale(0.7)" xlink:href="#DejaVuSans-Oblique-65"/>
      </g>
     </g>
    </g>
    <g id="xtick_10">
     <g id="line2d_10">
      <g>
       <use style="stroke:#000000;stroke-width:0.8;" x="445.65061" xlink:href="#m1835295e54" y="236.464"/>
      </g>
     </g>
     <g id="text_10">
      <!-- 5$_B$ -->
      <g transform="translate(437.01061 255.519)scale(0.16 -0.16)">
       <use transform="translate(0 0.125)" xlink:href="#YuGothic-Regular-53"/>
       <use transform="translate(56.572266 -16.28125)scale(0.7)" xlink:href="#DejaVuSans-Oblique-66"/>
      </g>
     </g>
    </g>
    <g id="xtick_11">
     <g id="line2d_11">
      <g>
       <use style="stroke:#000000;stroke-width:0.8;" x="481.40435" xlink:href="#m1835295e54" y="236.464"/>
      </g>
     </g>
     <g id="text_11">
      <!-- 6$_A$ -->
      <g transform="translate(472.76435 255.624)scale(0.16 -0.16)">
       <defs>
        <path d="M 47.515625 65.71875 
L 41.5 62.796875 
Q 38.421875 69.671875 31 69.671875 
Q 14.203125 69.671875 13.625 37.015625 
Q 20.40625 47.90625 30.609375 47.90625 
Q 39.3125 47.90625 44.484375 40.96875 
Q 49.03125 34.859375 49.03125 25.390625 
Q 49.03125 13.375 42.53125 6.59375 
Q 37.109375 0.875 28.90625 0.875 
Q 18.5 0.875 12.796875 10.203125 
Q 7.421875 18.890625 7.421875 34.375 
Q 7.421875 56.34375 14.703125 66.65625 
Q 20.703125 75.09375 31.203125 75.09375 
Q 42.4375 75.09375 47.515625 65.71875 
z
M 13.8125 30.71875 
Q 13.921875 17.78125 18.75 11.421875 
Q 22.65625 6.296875 28.90625 6.296875 
Q 35.6875 6.296875 39.3125 11.859375 
Q 42.53125 16.796875 42.53125 25.296875 
Q 42.53125 33.84375 38.578125 38.421875 
Q 35.15625 42.390625 29.640625 42.390625 
Q 20.265625 42.390625 13.8125 30.71875 
z
" id="YuGothic-Regular-54"/>
       </defs>
       <use transform="translate(0 0.90625)" xlink:href="#YuGothic-Regular-54"/>
       <use transform="translate(56.572266 -15.5)scale(0.7)" xlink:href="#DejaVuSans-Oblique-65"/>
      </g>
     </g>
    </g>
    <g id="xtick_12">
     <g id="line2d_12">
      <g>
       <use style="stroke:#000000;stroke-width:0.8;" x="517.15809" xlink:href="#m1835295e54" y="236.464"/>
      </g>
     </g>
     <g id="text_12">
      <!-- 6$_B$ -->
      <g transform="translate(508.51809 255.624)scale(0.16 -0.16)">
       <use transform="translate(0 0.90625)" xlink:href="#YuGothic-Regular-54"/>
       <use transform="translate(56.572266 -15.5)scale(0.7)" xlink:href="#DejaVuSans-Oblique-66"/>
      </g>
     </g>
    </g>
    <g id="xtick_13">
     <g id="line2d_13">
      <g>
       <use style="stroke:#000000;stroke-width:0.8;" x="552.91183" xlink:href="#m1835295e54" y="236.464"/>
      </g>
     </g>
     <g id="text_13">
      <!-- 7$_A$ -->
      <g transform="translate(544.27183 255.519)scale(0.16 -0.16)">
       <defs>
        <path d="M 48.296875 73.875 
L 48.296875 68.84375 
Q 38.03125 52.4375 32.90625 35.6875 
Q 28.265625 20.703125 26.703125 2.203125 
L 19.578125 2.203125 
Q 21.578125 22.65625 27.78125 39.65625 
Q 32.8125 53.5625 41.796875 68.171875 
L 6.78125 68.171875 
L 6.78125 73.875 
z
" id="YuGothic-Regular-55"/>
       </defs>
       <use transform="translate(0 0.125)" xlink:href="#YuGothic-Regular-55"/>
       <use transform="translate(56.572266 -16.28125)scale(0.7)" xlink:href="#DejaVuSans-Oblique-65"/>
      </g>
     </g>
    </g>
    <g id="xtick_14">
     <g id="line2d_14">
      <g>
       <use style="stroke:#000000;stroke-width:0.8;" x="588.66557" xlink:href="#m1835295e54" y="236.464"/>
      </g>
     </g>
     <g id="text_14">
      <!-- 7$_B$ -->
      <g transform="translate(580.02557 255.519)scale(0.16 -0.16)">
       <use transform="translate(0 0.125)" xlink:href="#YuGothic-Regular-55"/>
       <use transform="translate(56.572266 -16.28125)scale(0.7)" xlink:href="#DejaVuSans-Oblique-66"/>
      </g>
     </g>
    </g>
    <g id="xtick_15">
     <g id="line2d_15">
      <g>
       <use style="stroke:#000000;stroke-width:0.8;" x="624.41931" xlink:href="#m1835295e54" y="236.464"/>
      </g>
     </g>
     <g id="text_15">
      <!-- 8$_A$ -->
      <g transform="translate(615.77931 255.624)scale(0.16 -0.16)">
       <defs>
        <path d="M 33.5 40.28125 
Q 43.015625 36.078125 46.6875 30.90625 
Q 49.703125 26.65625 49.703125 20.40625 
Q 49.703125 10.6875 42.78125 5.375 
Q 36.921875 0.875 27.734375 0.875 
Q 17.234375 0.875 11.234375 6.640625 
Q 5.8125 11.8125 5.8125 20.171875 
Q 5.8125 27 10.15625 31.6875 
Q 13.921875 35.75 22.015625 39.5 
Q 13.921875 43.359375 10.75 48 
Q 8.015625 51.90625 8.015625 57.625 
Q 8.015625 65.765625 14.15625 70.75 
Q 19.578125 75.09375 27.6875 75.09375 
Q 37.15625 75.09375 42.828125 69.625 
Q 47.703125 64.890625 47.703125 57.90625 
Q 47.703125 51.375 44.140625 47.21875 
Q 40.875 43.5 33.5 40.28125 
z
M 28.609375 42.578125 
Q 36.375 45.90625 39.203125 49.859375 
Q 41.5 52.984375 41.5 57.8125 
Q 41.5 63.625 37.203125 67 
Q 33.5 69.921875 27.6875 69.921875 
Q 21.140625 69.921875 17.4375 66.109375 
Q 14.203125 62.796875 14.203125 57.625 
Q 14.203125 52.59375 17.234375 49.359375 
Q 20.125 46.34375 26.90625 43.40625 
z
M 27.09375 37.109375 
Q 18.40625 33.203125 15.046875 29.046875 
Q 12.109375 25.4375 12.109375 20.40625 
Q 12.109375 13.375 16.84375 9.578125 
Q 20.953125 6.203125 27.734375 6.203125 
Q 35.640625 6.203125 39.84375 10.5 
Q 43.40625 14.15625 43.40625 20.3125 
Q 43.40625 25.984375 39.84375 29.640625 
Q 36.578125 32.953125 28.8125 36.28125 
z
" id="YuGothic-Regular-56"/>
       </defs>
       <use transform="translate(0 0.90625)" xlink:href="#YuGothic-Regular-56"/>
       <use transform="translate(56.572266 -15.5)scale(0.7)" xlink:href="#DejaVuSans-Oblique-65"/>
      </g>
     </g>
    </g>
    <g id="xtick_16">
     <g id="line2d_16">
      <g>
       <use style="stroke:#000000;stroke-width:0.8;" x="660.173049" xlink:href="#m1835295e54" y="236.464"/>
      </g>
     </g>
     <g id="text_16">
      <!-- 8$_B$ -->
      <g transform="translate(651.533049 255.624)scale(0.16 -0.16)">
       <use transform="translate(0 0.90625)" xlink:href="#YuGothic-Regular-56"/>
       <use transform="translate(56.572266 -15.5)scale(0.7)" xlink:href="#DejaVuSans-Oblique-66"/>
      </g>
     </g>
    </g>
    <g id="text_17">
     <!-- site index n$_S$ -->
     <g transform="translate(345.7 274.664)scale(0.16 -0.16)">
      <defs>
       <path d="M 43.109375 41.609375 
L 37.109375 39.5 
Q 34.28125 48.53125 24.90625 48.53125 
Q 19.234375 48.53125 16.15625 46.046875 
Q 13.53125 43.890625 13.53125 40.53125 
Q 13.53125 36.328125 16.15625 34.328125 
Q 18.5 32.515625 24.515625 31.203125 
L 28.515625 30.328125 
Q 37.796875 28.171875 41.265625 24.65625 
Q 44.4375 21.484375 44.4375 15.671875 
Q 44.4375 8.796875 39.109375 4.78125 
Q 34.078125 0.984375 25.4375 0.984375 
Q 10.359375 0.984375 5.71875 13.09375 
L 11.71875 15.375 
Q 15.046875 5.859375 25.53125 5.859375 
Q 32.46875 5.859375 35.796875 9.03125 
Q 38.328125 11.46875 38.328125 15.09375 
Q 38.328125 19.734375 35.6875 21.78125 
Q 33.203125 23.6875 26.421875 25.203125 
L 22.40625 26.125 
Q 13.578125 28.125 10.296875 31.78125 
Q 7.625 34.765625 7.625 39.984375 
Q 7.625 46.296875 12.546875 49.953125 
Q 17.140625 53.421875 25 53.421875 
Q 38.53125 53.421875 43.109375 41.609375 
z
" id="YuGothic-Regular-115"/>
       <path d="M 16.21875 52.203125 
L 16.21875 2.203125 
L 10.015625 2.203125 
L 10.015625 52.203125 
z
M 17.671875 72.3125 
L 17.671875 62.984375 
L 8.5 62.984375 
L 8.5 72.3125 
z
" id="YuGothic-Regular-105"/>
       <path d="M 18.703125 70.125 
L 18.703125 52.203125 
L 31.296875 52.203125 
L 31.296875 47.21875 
L 18.703125 47.21875 
L 18.703125 14.703125 
Q 18.703125 5.859375 26.125 5.859375 
Q 29.34375 5.859375 32.625 6.59375 
L 32.171875 1.515625 
Q 29.046875 0.984375 25.09375 0.984375 
Q 12.5 0.984375 12.5 13.484375 
L 12.5 47.21875 
L 3.90625 47.21875 
L 3.90625 52.203125 
L 12.5 52.203125 
L 12.5 68.703125 
z
" id="YuGothic-Regular-116"/>
       <path d="M 49.171875 26.703125 
L 12.890625 26.703125 
Q 12.890625 16.21875 17.96875 10.546875 
Q 22.21875 5.859375 28.8125 5.859375 
Q 39.59375 5.859375 42.96875 16.609375 
L 48.78125 14.40625 
Q 43.609375 0.984375 28.71875 0.984375 
Q 18.21875 0.984375 12.15625 8.9375 
Q 6.78125 15.96875 6.78125 27.09375 
Q 6.78125 39.796875 13.671875 47.171875 
Q 19.484375 53.421875 28.171875 53.421875 
Q 38.09375 53.421875 43.953125 45.75 
Q 49.171875 38.921875 49.171875 28.328125 
z
M 42.96875 31.390625 
Q 42.28125 40.09375 37.890625 44.578125 
Q 34.125 48.4375 28.265625 48.4375 
Q 21.53125 48.4375 17.328125 43.21875 
Q 13.625 38.671875 13.09375 31.390625 
z
" id="YuGothic-Regular-101"/>
       <path d="M 0 0 
z
" id="YuGothic-Regular-32"/>
       <path d="M 16.015625 52.203125 
L 16.015625 42.921875 
Q 24.421875 53.421875 34.28125 53.421875 
Q 41.0625 53.421875 44.875 49.171875 
Q 48.296875 45.40625 48.296875 39.3125 
L 48.296875 2.203125 
L 42 2.203125 
L 42 36.71875 
Q 42 47.796875 32.71875 47.796875 
Q 24.03125 47.796875 16.21875 37.40625 
L 16.21875 2.203125 
L 10.015625 2.203125 
L 10.015625 52.203125 
z
" id="YuGothic-Regular-110"/>
       <path d="M 48 76.421875 
L 48 2.203125 
L 42 2.203125 
L 42 9.90625 
Q 36.421875 0.984375 26.90625 0.984375 
Q 17.484375 0.984375 11.859375 8.9375 
Q 6.78125 16.109375 6.78125 27.390625 
Q 6.78125 40.234375 13.1875 47.40625 
Q 18.5 53.421875 26.609375 53.421875 
Q 35.984375 53.421875 41.796875 44.671875 
L 41.796875 76.421875 
z
M 41.796875 37.984375 
Q 36.53125 48 27.59375 48 
Q 20.65625 48 16.75 41.9375 
Q 13.1875 36.46875 13.1875 27.296875 
Q 13.1875 16.703125 18.015625 11.03125 
Q 21.96875 6.296875 28.078125 6.296875 
Q 36.28125 6.296875 41.796875 16.015625 
z
" id="YuGothic-Regular-100"/>
       <path d="M 43.703125 52.203125 
L 27.828125 28.078125 
L 45.125 2.203125 
L 38.09375 2.203125 
L 27 19.484375 
Q 26.46875 20.359375 25.53125 21.78125 
Q 24.703125 23.140625 24.21875 23.875 
Q 23.1875 22.3125 21.390625 19.484375 
L 10.59375 2.203125 
L 3.8125 2.203125 
L 20.796875 27.875 
L 4.6875 52.203125 
L 11.71875 52.203125 
L 21.625 36.375 
Q 22.953125 34.234375 24.609375 31.890625 
L 27.484375 36.8125 
L 36.921875 52.203125 
z
" id="YuGothic-Regular-120"/>
       <path d="M 60.296875 70.515625 
L 58.40625 60.890625 
Q 53.46875 63.53125 48.609375 64.875 
Q 43.75 66.21875 39.203125 66.21875 
Q 30.375 66.21875 25.140625 62.359375 
Q 19.921875 58.5 19.921875 52.09375 
Q 19.921875 48.578125 21.84375 46.703125 
Q 23.78125 44.828125 31.78125 42.671875 
L 37.703125 41.21875 
Q 47.703125 38.625 51.609375 34.640625 
Q 55.515625 30.671875 55.515625 23.484375 
Q 55.515625 12.453125 46.84375 5.515625 
Q 38.1875 -1.421875 24.03125 -1.421875 
Q 18.21875 -1.421875 12.359375 -0.265625 
Q 6.5 0.875 0.59375 3.21875 
L 2.59375 13.375 
Q 8.015625 10.015625 13.453125 8.296875 
Q 18.890625 6.59375 24.3125 6.59375 
Q 33.546875 6.59375 39.109375 10.6875 
Q 44.671875 14.796875 44.671875 21.390625 
Q 44.671875 25.78125 42.453125 28.046875 
Q 40.234375 30.328125 32.90625 32.171875 
L 27 33.6875 
Q 16.890625 36.328125 13.203125 39.765625 
Q 9.515625 43.21875 9.515625 49.421875 
Q 9.515625 60.296875 17.890625 67.25 
Q 26.265625 74.21875 39.703125 74.21875 
Q 44.921875 74.21875 50.046875 73.28125 
Q 55.171875 72.359375 60.296875 70.515625 
z
" id="DejaVuSans-Oblique-83"/>
      </defs>
      <use transform="translate(0 0.578125)" xlink:href="#YuGothic-Regular-115"/>
      <use transform="translate(50.878906 0.578125)" xlink:href="#YuGothic-Regular-105"/>
      <use transform="translate(77.099609 0.578125)" xlink:href="#YuGothic-Regular-116"/>
      <use transform="translate(112.304688 0.578125)" xlink:href="#YuGothic-Regular-101"/>
      <use transform="translate(168.115234 0.578125)" xlink:href="#YuGothic-Regular-32"/>
      <use transform="translate(196.630859 0.578125)" xlink:href="#YuGothic-Regular-105"/>
      <use transform="translate(222.851562 0.578125)" xlink:href="#YuGothic-Regular-110"/>
      <use transform="translate(280.859375 0.578125)" xlink:href="#YuGothic-Regular-100"/>
      <use transform="translate(338.671875 0.578125)" xlink:href="#YuGothic-Regular-101"/>
      <use transform="translate(394.482422 0.578125)" xlink:href="#YuGothic-Regular-120"/>
      <use transform="translate(443.359375 0.578125)" xlink:href="#YuGothic-Regular-32"/>
      <use transform="translate(471.875 0.578125)" xlink:href="#YuGothic-Regular-110"/>
      <use transform="translate(530.839844 -15.828125)scale(0.7)" xlink:href="#DejaVuSans-Oblique-83"/>
     </g>
    </g>
   </g>
   <g id="matplotlib.axis_2">
    <g id="ytick_1">
     <g id="line2d_17">
      <defs>
       <path d="M 0 0 
L -3.5 0 
" id="m3c2207ab56" style="stroke:#000000;stroke-width:0.8;"/>
      </defs>
      <g>
       <use style="stroke:#000000;stroke-width:0.8;" x="81.32" xlink:href="#m3c2207ab56" y="227.452245"/>
      </g>
     </g>
     <g id="text_18">
      <!-- −0.5 -->
      <g transform="translate(36.4 233.565995)scale(0.16 -0.16)">
       <defs>
        <path d="M 78.125 40.28125 
L 78.125 35.796875 
L 21.921875 35.796875 
L 21.921875 40.28125 
z
" id="YuGothic-Regular-8722"/>
        <path d="M 27.9375 75.09375 
Q 49.21875 75.09375 49.21875 38.375 
Q 49.21875 0.875 27.6875 0.875 
Q 6.390625 0.875 6.390625 38.1875 
Q 6.390625 75.09375 27.9375 75.09375 
z
M 27.9375 69.578125 
Q 19.828125 69.578125 16.359375 61.53125 
Q 13.09375 54 13.09375 38.375 
Q 13.09375 20.359375 17.1875 12.796875 
Q 20.65625 6.390625 27.6875 6.390625 
Q 35.796875 6.390625 39.3125 14.84375 
Q 42.53125 22.5625 42.53125 38.28125 
Q 42.53125 56.109375 38.375 63.421875 
Q 34.90625 69.578125 27.9375 69.578125 
z
" id="YuGothic-Regular-48"/>
        <path d="M 17.921875 12.40625 
L 17.921875 2.203125 
L 7.90625 2.203125 
L 7.90625 12.40625 
z
" id="YuGothic-Regular-46"/>
       </defs>
       <use xlink:href="#YuGothic-Regular-8722"/>
       <use x="100" xlink:href="#YuGothic-Regular-48"/>
       <use x="155.615234" xlink:href="#YuGothic-Regular-46"/>
       <use x="181.396484" xlink:href="#YuGothic-Regular-53"/>
      </g>
     </g>
    </g>
    <g id="ytick_2">
     <g id="line2d_18">
      <g>
       <use style="stroke:#000000;stroke-width:0.8;" x="81.32" xlink:href="#m3c2207ab56" y="167.359436"/>
      </g>
     </g>
     <g id="text_19">
      <!-- 0.0 -->
      <g transform="translate(52.4 173.473186)scale(0.16 -0.16)">
       <use xlink:href="#YuGothic-Regular-48"/>
       <use x="55.615234" xlink:href="#YuGothic-Regular-46"/>
       <use x="81.396484" xlink:href="#YuGothic-Regular-48"/>
      </g>
     </g>
    </g>
    <g id="ytick_3">
     <g id="line2d_19">
      <g>
       <use style="stroke:#000000;stroke-width:0.8;" x="81.32" xlink:href="#m3c2207ab56" y="107.266627"/>
      </g>
     </g>
     <g id="text_20">
      <!-- 0.5 -->
      <g transform="translate(52.4 113.380377)scale(0.16 -0.16)">
       <use xlink:href="#YuGothic-Regular-48"/>
       <use x="55.615234" xlink:href="#YuGothic-Regular-46"/>
       <use x="81.396484" xlink:href="#YuGothic-Regular-53"/>
      </g>
     </g>
    </g>
    <g id="ytick_4">
     <g id="line2d_20">
      <g>
       <use style="stroke:#000000;stroke-width:0.8;" x="81.32" xlink:href="#m3c2207ab56" y="47.173818"/>
      </g>
     </g>
     <g id="text_21">
      <!-- 1.0 -->
      <g transform="translate(52.4 53.287568)scale(0.16 -0.16)">
       <use xlink:href="#YuGothic-Regular-49"/>
       <use x="55.615234" xlink:href="#YuGothic-Regular-46"/>
       <use x="81.396484" xlink:href="#YuGothic-Regular-48"/>
      </g>
     </g>
    </g>
    <g id="text_22">
     <!-- wavefunction -->
     <g transform="translate(29.8525 186.58325)rotate(-90)scale(0.16 -0.16)">
      <defs>
       <path d="M 73.734375 52.203125 
L 58.59375 2.203125 
L 50.921875 2.203125 
L 42.53125 33.109375 
Q 40.921875 39.015625 39.203125 47.21875 
L 38.09375 47.21875 
Q 35.984375 37.15625 34.90625 33.109375 
L 26.515625 2.203125 
L 18.796875 2.203125 
L 3.90625 52.203125 
L 10.59375 52.203125 
L 18.796875 21.09375 
Q 20.703125 13.671875 22.21875 7.078125 
L 23.296875 7.078125 
Q 26.421875 20.609375 26.515625 21 
L 34.8125 52.203125 
L 42.828125 52.203125 
L 51.125 21.390625 
Q 52.203125 17.390625 54.296875 7.078125 
L 55.421875 7.078125 
Q 57.125 15.046875 58.890625 21.296875 
L 67.390625 52.203125 
z
" id="YuGothic-Regular-119"/>
       <path d="M 8.59375 40.578125 
Q 13.09375 53.421875 28.265625 53.421875 
Q 46 53.421875 46 36.8125 
L 46 19.1875 
Q 46 9.1875 47.21875 2.203125 
L 41.40625 2.203125 
Q 40.765625 5.078125 40.28125 10.984375 
Q 33.6875 0.984375 22.21875 0.984375 
Q 14.265625 0.984375 10.0625 5.5625 
Q 6.5 9.421875 6.5 15.484375 
Q 6.5 29.046875 23.390625 31.890625 
Q 29.984375 33.015625 39.984375 33.5 
L 39.984375 36.1875 
Q 39.984375 43.3125 36.859375 46.09375 
Q 34.125 48.53125 28.171875 48.53125 
Q 17.4375 48.53125 14.40625 38.484375 
z
M 39.984375 28.90625 
Q 32.46875 28.765625 24.703125 27.296875 
Q 12.703125 24.859375 12.703125 15.765625 
Q 12.703125 10.890625 15.828125 8.25 
Q 18.609375 5.859375 23.296875 5.859375 
Q 33.34375 5.859375 39.984375 16.703125 
z
" id="YuGothic-Regular-97"/>
       <path d="M 45.125 52.203125 
L 28.328125 2.203125 
L 20.609375 2.203125 
L 3.8125 52.203125 
L 10.5 52.203125 
L 20.125 21.484375 
Q 20.90625 18.890625 24.21875 7.078125 
L 25.09375 7.078125 
Q 28.21875 18.40625 29.296875 21.921875 
L 38.8125 52.203125 
z
" id="YuGothic-Regular-118"/>
       <path d="M 32.46875 75.984375 
L 31.59375 70.90625 
Q 29.4375 71.34375 27 71.34375 
Q 22.65625 71.34375 20.796875 69.09375 
Q 19.1875 67.140625 19.1875 62.984375 
L 19.1875 52.203125 
L 31 52.203125 
L 31 47.21875 
L 19.1875 47.21875 
L 19.1875 2.203125 
L 12.984375 2.203125 
L 12.984375 47.21875 
L 3.71875 47.21875 
L 3.71875 52.203125 
L 12.984375 52.203125 
L 12.984375 63.1875 
Q 12.984375 76.421875 26.265625 76.421875 
Q 28.515625 76.421875 32.46875 75.984375 
z
" id="YuGothic-Regular-102"/>
       <path d="M 48.09375 52.203125 
L 48.09375 2.203125 
L 42.09375 2.203125 
L 42.09375 11.71875 
Q 38.71875 6.390625 33.40625 3.515625 
Q 28.8125 0.984375 23.921875 0.984375 
Q 17.1875 0.984375 13.328125 5.03125 
Q 9.71875 8.734375 9.71875 14.984375 
L 9.71875 52.203125 
L 16.015625 52.203125 
L 16.015625 16.890625 
Q 16.015625 6.5 25.59375 6.5 
Q 30.21875 6.5 35.015625 9.859375 
Q 39.15625 12.796875 41.890625 17.1875 
L 41.890625 52.203125 
z
" id="YuGothic-Regular-117"/>
       <path d="M 46.578125 39.109375 
L 40.484375 37.3125 
Q 37.796875 48.34375 27.78125 48.34375 
Q 20.40625 48.34375 16.40625 42.09375 
Q 12.890625 36.53125 12.890625 27.296875 
Q 12.890625 16.546875 17.484375 10.890625 
Q 21.390625 6.0625 27.78125 6.0625 
Q 38.328125 6.0625 41.015625 17.28125 
L 46.96875 15.28125 
Q 42.28125 0.984375 27.78125 0.984375 
Q 17.4375 0.984375 11.625 8.9375 
Q 6.5 15.921875 6.5 27.09375 
Q 6.5 39.890625 13.1875 47.171875 
Q 18.953125 53.421875 27.78125 53.421875 
Q 35.15625 53.421875 40.140625 49.3125 
Q 44.671875 45.65625 46.578125 39.109375 
z
" id="YuGothic-Regular-99"/>
       <path d="M 28.078125 53.421875 
Q 38.09375 53.421875 44 45.515625 
Q 49.265625 38.421875 49.265625 27.390625 
Q 49.265625 14.59375 42.484375 7.28125 
Q 36.71875 0.984375 27.984375 0.984375 
Q 17.828125 0.984375 11.96875 8.984375 
Q 6.78125 16.015625 6.78125 27.09375 
Q 6.78125 39.890625 13.53125 47.171875 
Q 19.28125 53.421875 28.078125 53.421875 
z
M 28.078125 48.34375 
Q 20.65625 48.34375 16.703125 42.09375 
Q 13.1875 36.578125 13.1875 27.296875 
Q 13.1875 16.546875 17.671875 10.890625 
Q 21.578125 6.0625 27.984375 6.0625 
Q 35.359375 6.0625 39.359375 12.359375 
Q 42.875 17.921875 42.875 27.296875 
Q 42.875 37.890625 38.375 43.5 
Q 34.46875 48.34375 28.078125 48.34375 
z
" id="YuGothic-Regular-111"/>
      </defs>
      <use xlink:href="#YuGothic-Regular-119"/>
      <use x="77.587891" xlink:href="#YuGothic-Regular-97"/>
      <use x="133.398438" xlink:href="#YuGothic-Regular-118"/>
      <use x="182.275391" xlink:href="#YuGothic-Regular-101"/>
      <use x="238.085938" xlink:href="#YuGothic-Regular-102"/>
      <use x="272.607422" xlink:href="#YuGothic-Regular-117"/>
      <use x="330.712891" xlink:href="#YuGothic-Regular-110"/>
      <use x="388.720703" xlink:href="#YuGothic-Regular-99"/>
      <use x="440.332031" xlink:href="#YuGothic-Regular-116"/>
      <use x="475.537109" xlink:href="#YuGothic-Regular-105"/>
      <use x="501.757812" xlink:href="#YuGothic-Regular-111"/>
      <use x="557.861328" xlink:href="#YuGothic-Regular-110"/>
     </g>
    </g>
   </g>
   <g id="patch_19">
    <path d="M 81.32 236.464 
L 81.32 38.16 
" style="fill:none;stroke:#000000;stroke-linecap:square;stroke-linejoin:miter;stroke-width:0.8;"/>
   </g>
   <g id="patch_20">
    <path d="M 702.72 236.464 
L 702.72 38.16 
" style="fill:none;stroke:#000000;stroke-linecap:square;stroke-linejoin:miter;stroke-width:0.8;"/>
   </g>
   <g id="patch_21">
    <path d="M 81.32 236.464 
L 702.72 236.464 
" style="fill:none;stroke:#000000;stroke-linecap:square;stroke-linejoin:miter;stroke-width:0.8;"/>
   </g>
   <g id="patch_22">
    <path d="M 81.32 38.16 
L 702.72 38.16 
" style="fill:none;stroke:#000000;stroke-linecap:square;stroke-linejoin:miter;stroke-width:0.8;"/>
   </g>
   <g id="text_23">
    <!-- symmetric -->
    <g transform="translate(346.183 32.16)scale(0.192 -0.192)">
     <defs>
      <path d="M 45.3125 52.203125 
L 26.421875 -0.390625 
Q 23.25 -9.375 18.5 -12.9375 
Q 14.59375 -15.921875 8.6875 -15.921875 
Q 6.203125 -15.921875 4.203125 -15.53125 
L 3.71875 -10.109375 
Q 6.390625 -10.6875 8.6875 -10.6875 
Q 13.28125 -10.6875 16.15625 -7.71875 
Q 18.75 -5.125 20.90625 0.6875 
L 21.828125 3.078125 
L 4 52.203125 
L 10.6875 52.203125 
L 21.53125 19.96875 
Q 22.515625 17 24.515625 9.90625 
L 25 9.90625 
Q 25.734375 12.015625 26.8125 15.484375 
Q 27.9375 18.953125 28.328125 20.21875 
L 38.921875 52.203125 
z
" id="YuGothic-Regular-121"/>
      <path d="M 15.921875 52.203125 
L 15.921875 42.921875 
Q 23.734375 53.421875 32.8125 53.421875 
Q 38.28125 53.421875 42 50.09375 
Q 45.21875 47.265625 45.796875 43.015625 
Q 53.421875 53.421875 62.796875 53.421875 
Q 69.390625 53.421875 73.09375 49.171875 
Q 76.421875 45.40625 76.421875 39.3125 
L 76.421875 2.203125 
L 70.21875 2.203125 
L 70.21875 36.71875 
Q 70.21875 47.796875 61.078125 47.796875 
Q 56.9375 47.796875 52.640625 44.578125 
Q 49.03125 41.84375 46.1875 37.40625 
L 46.1875 2.203125 
L 39.984375 2.203125 
L 39.984375 36.71875 
Q 39.984375 47.796875 31.203125 47.796875 
Q 27.046875 47.796875 22.859375 44.734375 
Q 19.09375 42.046875 16.109375 37.40625 
L 16.109375 2.203125 
L 10.015625 2.203125 
L 10.015625 52.203125 
z
" id="YuGothic-Regular-109"/>
      <path d="M 32.71875 53.421875 
L 32.234375 47.21875 
Q 26.953125 47.21875 22.46875 42.671875 
Q 18.265625 38.484375 16.109375 31.5 
L 16.109375 2.203125 
L 10.015625 2.203125 
L 10.015625 52.203125 
L 15.921875 52.203125 
L 15.921875 39.203125 
Q 18.84375 46.6875 23.828125 50.390625 
Q 27.9375 53.421875 32.71875 53.421875 
z
" id="YuGothic-Regular-114"/>
     </defs>
     <use xlink:href="#YuGothic-Regular-115"/>
     <use x="50.878906" xlink:href="#YuGothic-Regular-121"/>
     <use x="100.097656" xlink:href="#YuGothic-Regular-109"/>
     <use x="186.181641" xlink:href="#YuGothic-Regular-109"/>
     <use x="272.265625" xlink:href="#YuGothic-Regular-101"/>
     <use x="328.076172" xlink:href="#YuGothic-Regular-116"/>
     <use x="363.28125" xlink:href="#YuGothic-Regular-114"/>
     <use x="399.658203" xlink:href="#YuGothic-Regular-105"/>
     <use x="425.878906" xlink:href="#YuGothic-Regular-99"/>
    </g>
   </g>
  </g>
  <g id="axes_2">
   <g id="patch_23">
    <path d="M 81.32 515.824 
L 702.72 515.824 
L 702.72 317.52 
L 81.32 317.52 
z
" style="fill:#ffffff;"/>
   </g>
   <g id="patch_24">
    <path clip-path="url(#p44dab4bc45)" d="M 109.565455 416.672 
L 138.168446 416.672 
L 138.168446 506.810182 
L 109.565455 506.810182 
z
" style="fill:#ff9999;"/>
   </g>
   <g id="patch_25">
    <path clip-path="url(#p44dab4bc45)" d="M 145.319194 416.672 
L 173.922186 416.672 
L 173.922186 417.2002 
L 145.319194 417.2002 
z
" style="fill:#ff9999;"/>
   </g>
   <g id="patch_26">
    <path clip-path="url(#p44dab4bc45)" d="M 181.072934 416.672 
L 209.675926 416.672 
L 209.675926 371.604457 
L 181.072934 371.604457 
z
" style="fill:#ff9999;"/>
   </g>
   <g id="patch_27">
    <path clip-path="url(#p44dab4bc45)" d="M 216.826674 416.672 
L 245.429666 416.672 
L 245.429666 415.35151 
L 216.826674 415.35151 
z
" style="fill:#ff9999;"/>
   </g>
   <g id="patch_28">
    <path clip-path="url(#p44dab4bc45)" d="M 252.580414 416.672 
L 281.183406 416.672 
L 281.183406 439.201903 
L 252.580414 439.201903 
z
" style="fill:#ff9999;"/>
   </g>
   <g id="patch_29">
    <path clip-path="url(#p44dab4bc45)" d="M 288.334154 416.672 
L 316.937146 416.672 
L 316.937146 419.445003 
L 288.334154 419.445003 
z
" style="fill:#ff9999;"/>
   </g>
   <g id="patch_30">
    <path clip-path="url(#p44dab4bc45)" d="M 324.087894 416.672 
L 352.690886 416.672 
L 352.690886 405.415173 
L 324.087894 405.415173 
z
" style="fill:#ff9999;"/>
   </g>
   <g id="patch_31">
    <path clip-path="url(#p44dab4bc45)" d="M 359.841634 416.672 
L 388.444626 416.672 
L 388.444626 411.060029 
L 359.841634 411.060029 
z
" style="fill:#ff9999;"/>
   </g>
   <g id="patch_32">
    <path clip-path="url(#p44dab4bc45)" d="M 395.595374 416.672 
L 424.198366 416.672 
L 424.198366 422.283971 
L 395.595374 422.283971 
z
" style="fill:#ff9999;"/>
   </g>
   <g id="patch_33">
    <path clip-path="url(#p44dab4bc45)" d="M 431.349114 416.672 
L 459.952106 416.672 
L 459.952106 427.928827 
L 431.349114 427.928827 
z
" style="fill:#ff9999;"/>
   </g>
   <g id="patch_34">
    <path clip-path="url(#p44dab4bc45)" d="M 467.102854 416.672 
L 495.705846 416.672 
L 495.705846 413.898997 
L 467.102854 413.898997 
z
" style="fill:#ff9999;"/>
   </g>
   <g id="patch_35">
    <path clip-path="url(#p44dab4bc45)" d="M 502.856594 416.672 
L 531.459586 416.672 
L 531.459586 394.142097 
L 502.856594 394.142097 
z
" style="fill:#ff9999;"/>
   </g>
   <g id="patch_36">
    <path clip-path="url(#p44dab4bc45)" d="M 538.610334 416.672 
L 567.213326 416.672 
L 567.213326 417.99249 
L 538.610334 417.99249 
z
" style="fill:#ff9999;"/>
   </g>
   <g id="patch_37">
    <path clip-path="url(#p44dab4bc45)" d="M 574.364074 416.672 
L 602.967066 416.672 
L 602.967066 461.739543 
L 574.364074 461.739543 
z
" style="fill:#ff9999;"/>
   </g>
   <g id="patch_38">
    <path clip-path="url(#p44dab4bc45)" d="M 610.117814 416.672 
L 638.720806 416.672 
L 638.720806 416.1438 
L 610.117814 416.1438 
z
" style="fill:#ff9999;"/>
   </g>
   <g id="patch_39">
    <path clip-path="url(#p44dab4bc45)" d="M 645.871554 416.672 
L 674.474545 416.672 
L 674.474545 326.533818 
L 645.871554 326.533818 
z
" style="fill:#ff9999;"/>
   </g>
   <g id="matplotlib.axis_3">
    <g id="xtick_17">
     <g id="line2d_21">
      <g>
       <use style="stroke:#000000;stroke-width:0.8;" x="123.866951" xlink:href="#m1835295e54" y="515.824"/>
      </g>
     </g>
     <g id="text_24">
      <!-- 1$_A$ -->
      <g transform="translate(115.226951 534.879)scale(0.16 -0.16)">
       <use transform="translate(0 0.09375)" xlink:href="#YuGothic-Regular-49"/>
       <use transform="translate(56.572266 -16.3125)scale(0.7)" xlink:href="#DejaVuSans-Oblique-65"/>
      </g>
     </g>
    </g>
    <g id="xtick_18">
     <g id="line2d_22">
      <g>
       <use style="stroke:#000000;stroke-width:0.8;" x="159.62069" xlink:href="#m1835295e54" y="515.824"/>
      </g>
     </g>
     <g id="text_25">
      <!-- 1$_B$ -->
      <g transform="translate(150.98069 534.879)scale(0.16 -0.16)">
       <use transform="translate(0 0.09375)" xlink:href="#YuGothic-Regular-49"/>
       <use transform="translate(56.572266 -16.3125)scale(0.7)" xlink:href="#DejaVuSans-Oblique-66"/>
      </g>
     </g>
    </g>
    <g id="xtick_19">
     <g id="line2d_23">
      <g>
       <use style="stroke:#000000;stroke-width:0.8;" x="195.37443" xlink:href="#m1835295e54" y="515.824"/>
      </g>
     </g>
     <g id="text_26">
      <!-- 2$_A$ -->
      <g transform="translate(186.73443 534.984)scale(0.16 -0.16)">
       <use transform="translate(0 0.90625)" xlink:href="#YuGothic-Regular-50"/>
       <use transform="translate(56.572266 -15.5)scale(0.7)" xlink:href="#DejaVuSans-Oblique-65"/>
      </g>
     </g>
    </g>
    <g id="xtick_20">
     <g id="line2d_24">
      <g>
       <use style="stroke:#000000;stroke-width:0.8;" x="231.12817" xlink:href="#m1835295e54" y="515.824"/>
      </g>
     </g>
     <g id="text_27">
      <!-- 2$_B$ -->
      <g transform="translate(222.48817 534.984)scale(0.16 -0.16)">
       <use transform="translate(0 0.90625)" xlink:href="#YuGothic-Regular-50"/>
       <use transform="translate(56.572266 -15.5)scale(0.7)" xlink:href="#DejaVuSans-Oblique-66"/>
      </g>
     </g>
    </g>
    <g id="xtick_21">
     <g id="line2d_25">
      <g>
       <use style="stroke:#000000;stroke-width:0.8;" x="266.88191" xlink:href="#m1835295e54" y="515.824"/>
      </g>
     </g>
     <g id="text_28">
      <!-- 3$_A$ -->
      <g transform="translate(258.24191 534.984)scale(0.16 -0.16)">
       <use transform="translate(0 0.90625)" xlink:href="#YuGothic-Regular-51"/>
       <use transform="translate(56.572266 -15.5)scale(0.7)" xlink:href="#DejaVuSans-Oblique-65"/>
      </g>
     </g>
    </g>
    <g id="xtick_22">
     <g id="line2d_26">
      <g>
       <use style="stroke:#000000;stroke-width:0.8;" x="302.63565" xlink:href="#m1835295e54" y="515.824"/>
      </g>
     </g>
     <g id="text_29">
      <!-- 3$_B$ -->
      <g transform="translate(293.99565 534.984)scale(0.16 -0.16)">
       <use transform="translate(0 0.90625)" xlink:href="#YuGothic-Regular-51"/>
       <use transform="translate(56.572266 -15.5)scale(0.7)" xlink:href="#DejaVuSans-Oblique-66"/>
      </g>
     </g>
    </g>
    <g id="xtick_23">
     <g id="line2d_27">
      <g>
       <use style="stroke:#000000;stroke-width:0.8;" x="338.38939" xlink:href="#m1835295e54" y="515.824"/>
      </g>
     </g>
     <g id="text_30">
      <!-- 4$_A$ -->
      <g transform="translate(329.74939 534.879)scale(0.16 -0.16)">
       <use transform="translate(0 0.1875)" xlink:href="#YuGothic-Regular-52"/>
       <use transform="translate(56.572266 -16.21875)scale(0.7)" xlink:href="#DejaVuSans-Oblique-65"/>
      </g>
     </g>
    </g>
    <g id="xtick_24">
     <g id="line2d_28">
      <g>
       <use style="stroke:#000000;stroke-width:0.8;" x="374.14313" xlink:href="#m1835295e54" y="515.824"/>
      </g>
     </g>
     <g id="text_31">
      <!-- 4$_B$ -->
      <g transform="translate(365.50313 534.879)scale(0.16 -0.16)">
       <use transform="translate(0 0.1875)" xlink:href="#YuGothic-Regular-52"/>
       <use transform="translate(56.572266 -16.21875)scale(0.7)" xlink:href="#DejaVuSans-Oblique-66"/>
      </g>
     </g>
    </g>
    <g id="xtick_25">
     <g id="line2d_29">
      <g>
       <use style="stroke:#000000;stroke-width:0.8;" x="409.89687" xlink:href="#m1835295e54" y="515.824"/>
      </g>
     </g>
     <g id="text_32">
      <!-- 5$_A$ -->
      <g transform="translate(401.25687 534.879)scale(0.16 -0.16)">
       <use transform="translate(0 0.125)" xlink:href="#YuGothic-Regular-53"/>
       <use transform="translate(56.572266 -16.28125)scale(0.7)" xlink:href="#DejaVuSans-Oblique-65"/>
      </g>
     </g>
    </g>
    <g id="xtick_26">
     <g id="line2d_30">
      <g>
       <use style="stroke:#000000;stroke-width:0.8;" x="445.65061" xlink:href="#m1835295e54" y="515.824"/>
      </g>
     </g>
     <g id="text_33">
      <!-- 5$_B$ -->
      <g transform="translate(437.01061 534.879)scale(0.16 -0.16)">
       <use transform="translate(0 0.125)" xlink:href="#YuGothic-Regular-53"/>
       <use transform="translate(56.572266 -16.28125)scale(0.7)" xlink:href="#DejaVuSans-Oblique-66"/>
      </g>
     </g>
    </g>
    <g id="xtick_27">
     <g id="line2d_31">
      <g>
       <use style="stroke:#000000;stroke-width:0.8;" x="481.40435" xlink:href="#m1835295e54" y="515.824"/>
      </g>
     </g>
     <g id="text_34">
      <!-- 6$_A$ -->
      <g transform="translate(472.76435 534.984)scale(0.16 -0.16)">
       <use transform="translate(0 0.90625)" xlink:href="#YuGothic-Regular-54"/>
       <use transform="translate(56.572266 -15.5)scale(0.7)" xlink:href="#DejaVuSans-Oblique-65"/>
      </g>
     </g>
    </g>
    <g id="xtick_28">
     <g id="line2d_32">
      <g>
       <use style="stroke:#000000;stroke-width:0.8;" x="517.15809" xlink:href="#m1835295e54" y="515.824"/>
      </g>
     </g>
     <g id="text_35">
      <!-- 6$_B$ -->
      <g transform="translate(508.51809 534.984)scale(0.16 -0.16)">
       <use transform="translate(0 0.90625)" xlink:href="#YuGothic-Regular-54"/>
       <use transform="translate(56.572266 -15.5)scale(0.7)" xlink:href="#DejaVuSans-Oblique-66"/>
      </g>
     </g>
    </g>
    <g id="xtick_29">
     <g id="line2d_33">
      <g>
       <use style="stroke:#000000;stroke-width:0.8;" x="552.91183" xlink:href="#m1835295e54" y="515.824"/>
      </g>
     </g>
     <g id="text_36">
      <!-- 7$_A$ -->
      <g transform="translate(544.27183 534.879)scale(0.16 -0.16)">
       <use transform="translate(0 0.125)" xlink:href="#YuGothic-Regular-55"/>
       <use transform="translate(56.572266 -16.28125)scale(0.7)" xlink:href="#DejaVuSans-Oblique-65"/>
      </g>
     </g>
    </g>
    <g id="xtick_30">
     <g id="line2d_34">
      <g>
       <use style="stroke:#000000;stroke-width:0.8;" x="588.66557" xlink:href="#m1835295e54" y="515.824"/>
      </g>
     </g>
     <g id="text_37">
      <!-- 7$_B$ -->
      <g transform="translate(580.02557 534.879)scale(0.16 -0.16)">
       <use transform="translate(0 0.125)" xlink:href="#YuGothic-Regular-55"/>
       <use transform="translate(56.572266 -16.28125)scale(0.7)" xlink:href="#DejaVuSans-Oblique-66"/>
      </g>
     </g>
    </g>
    <g id="xtick_31">
     <g id="line2d_35">
      <g>
       <use style="stroke:#000000;stroke-width:0.8;" x="624.41931" xlink:href="#m1835295e54" y="515.824"/>
      </g>
     </g>
     <g id="text_38">
      <!-- 8$_A$ -->
      <g transform="translate(615.77931 534.984)scale(0.16 -0.16)">
       <use transform="translate(0 0.90625)" xlink:href="#YuGothic-Regular-56"/>
       <use transform="translate(56.572266 -15.5)scale(0.7)" xlink:href="#DejaVuSans-Oblique-65"/>
      </g>
     </g>
    </g>
    <g id="xtick_32">
     <g id="line2d_36">
      <g>
       <use style="stroke:#000000;stroke-width:0.8;" x="660.173049" xlink:href="#m1835295e54" y="515.824"/>
      </g>
     </g>
     <g id="text_39">
      <!-- 8$_B$ -->
      <g transform="translate(651.533049 534.984)scale(0.16 -0.16)">
       <use transform="translate(0 0.90625)" xlink:href="#YuGothic-Regular-56"/>
       <use transform="translate(56.572266 -15.5)scale(0.7)" xlink:href="#DejaVuSans-Oblique-66"/>
      </g>
     </g>
    </g>
    <g id="text_40">
     <!-- site index n$_S$ -->
     <g transform="translate(345.7 554.024)scale(0.16 -0.16)">
      <use transform="translate(0 0.578125)" xlink:href="#YuGothic-Regular-115"/>
      <use transform="translate(50.878906 0.578125)" xlink:href="#YuGothic-Regular-105"/>
      <use transform="translate(77.099609 0.578125)" xlink:href="#YuGothic-Regular-116"/>
      <use transform="translate(112.304688 0.578125)" xlink:href="#YuGothic-Regular-101"/>
      <use transform="translate(168.115234 0.578125)" xlink:href="#YuGothic-Regular-32"/>
      <use transform="translate(196.630859 0.578125)" xlink:href="#YuGothic-Regular-105"/>
      <use transform="translate(222.851562 0.578125)" xlink:href="#YuGothic-Regular-110"/>
      <use transform="translate(280.859375 0.578125)" xlink:href="#YuGothic-Regular-100"/>
      <use transform="translate(338.671875 0.578125)" xlink:href="#YuGothic-Regular-101"/>
      <use transform="translate(394.482422 0.578125)" xlink:href="#YuGothic-Regular-120"/>
      <use transform="translate(443.359375 0.578125)" xlink:href="#YuGothic-Regular-32"/>
      <use transform="translate(471.875 0.578125)" xlink:href="#YuGothic-Regular-110"/>
      <use transform="translate(530.839844 -15.828125)scale(0.7)" xlink:href="#DejaVuSans-Oblique-83"/>
     </g>
    </g>
   </g>
   <g id="matplotlib.axis_4">
    <g id="ytick_5">
     <g id="line2d_37">
      <g>
       <use style="stroke:#000000;stroke-width:0.8;" x="81.32" xlink:href="#m3c2207ab56" y="506.810182"/>
      </g>
     </g>
     <g id="text_41">
      <!-- −1.0 -->
      <g transform="translate(36.4 512.923932)scale(0.16 -0.16)">
       <use xlink:href="#YuGothic-Regular-8722"/>
       <use x="100" xlink:href="#YuGothic-Regular-49"/>
       <use x="155.615234" xlink:href="#YuGothic-Regular-46"/>
       <use x="181.396484" xlink:href="#YuGothic-Regular-48"/>
      </g>
     </g>
    </g>
    <g id="ytick_6">
     <g id="line2d_38">
      <g>
       <use style="stroke:#000000;stroke-width:0.8;" x="81.32" xlink:href="#m3c2207ab56" y="461.741091"/>
      </g>
     </g>
     <g id="text_42">
      <!-- −0.5 -->
      <g transform="translate(36.4 467.854841)scale(0.16 -0.16)">
       <use xlink:href="#YuGothic-Regular-8722"/>
       <use x="100" xlink:href="#YuGothic-Regular-48"/>
       <use x="155.615234" xlink:href="#YuGothic-Regular-46"/>
       <use x="181.396484" xlink:href="#YuGothic-Regular-53"/>
      </g>
     </g>
    </g>
    <g id="ytick_7">
     <g id="line2d_39">
      <g>
       <use style="stroke:#000000;stroke-width:0.8;" x="81.32" xlink:href="#m3c2207ab56" y="416.672"/>
      </g>
     </g>
     <g id="text_43">
      <!-- 0.0 -->
      <g transform="translate(52.4 422.78575)scale(0.16 -0.16)">
       <use xlink:href="#YuGothic-Regular-48"/>
       <use x="55.615234" xlink:href="#YuGothic-Regular-46"/>
       <use x="81.396484" xlink:href="#YuGothic-Regular-48"/>
      </g>
     </g>
    </g>
    <g id="ytick_8">
     <g id="line2d_40">
      <g>
       <use style="stroke:#000000;stroke-width:0.8;" x="81.32" xlink:href="#m3c2207ab56" y="371.602909"/>
      </g>
     </g>
     <g id="text_44">
      <!-- 0.5 -->
      <g transform="translate(52.4 377.716659)scale(0.16 -0.16)">
       <use xlink:href="#YuGothic-Regular-48"/>
       <use x="55.615234" xlink:href="#YuGothic-Regular-46"/>
       <use x="81.396484" xlink:href="#YuGothic-Regular-53"/>
      </g>
     </g>
    </g>
    <g id="ytick_9">
     <g id="line2d_41">
      <g>
       <use style="stroke:#000000;stroke-width:0.8;" x="81.32" xlink:href="#m3c2207ab56" y="326.533818"/>
      </g>
     </g>
     <g id="text_45">
      <!-- 1.0 -->
      <g transform="translate(52.4 332.647568)scale(0.16 -0.16)">
       <use xlink:href="#YuGothic-Regular-49"/>
       <use x="55.615234" xlink:href="#YuGothic-Regular-46"/>
       <use x="81.396484" xlink:href="#YuGothic-Regular-48"/>
      </g>
     </g>
    </g>
    <g id="text_46">
     <!-- wavefunction -->
     <g transform="translate(29.8525 465.94325)rotate(-90)scale(0.16 -0.16)">
      <use xlink:href="#YuGothic-Regular-119"/>
      <use x="77.587891" xlink:href="#YuGothic-Regular-97"/>
      <use x="133.398438" xlink:href="#YuGothic-Regular-118"/>
      <use x="182.275391" xlink:href="#YuGothic-Regular-101"/>
      <use x="238.085938" xlink:href="#YuGothic-Regular-102"/>
      <use x="272.607422" xlink:href="#YuGothic-Regular-117"/>
      <use x="330.712891" xlink:href="#YuGothic-Regular-110"/>
      <use x="388.720703" xlink:href="#YuGothic-Regular-99"/>
      <use x="440.332031" xlink:href="#YuGothic-Regular-116"/>
      <use x="475.537109" xlink:href="#YuGothic-Regular-105"/>
      <use x="501.757812" xlink:href="#YuGothic-Regular-111"/>
      <use x="557.861328" xlink:href="#YuGothic-Regular-110"/>
     </g>
    </g>
   </g>
   <g id="patch_40">
    <path d="M 81.32 515.824 
L 81.32 317.52 
" style="fill:none;stroke:#000000;stroke-linecap:square;stroke-linejoin:miter;stroke-width:0.8;"/>
   </g>
   <g id="patch_41">
    <path d="M 702.72 515.824 
L 702.72 317.52 
" style="fill:none;stroke:#000000;stroke-linecap:square;stroke-linejoin:miter;stroke-width:0.8;"/>
   </g>
   <g id="patch_42">
    <path d="M 81.32 515.824 
L 702.72 515.824 
" style="fill:none;stroke:#000000;stroke-linecap:square;stroke-linejoin:miter;stroke-width:0.8;"/>
   </g>
   <g id="patch_43">
    <path d="M 81.32 317.52 
L 702.72 317.52 
" style="fill:none;stroke:#000000;stroke-linecap:square;stroke-linejoin:miter;stroke-width:0.8;"/>
   </g>
   <g id="text_47">
    <!-- antisymmetric -->
    <g transform="translate(329.359 311.52)scale(0.192 -0.192)">
     <use xlink:href="#YuGothic-Regular-97"/>
     <use x="55.810547" xlink:href="#YuGothic-Regular-110"/>
     <use x="113.818359" xlink:href="#YuGothic-Regular-116"/>
     <use x="149.023438" xlink:href="#YuGothic-Regular-105"/>
     <use x="175.244141" xlink:href="#YuGothic-Regular-115"/>
     <use x="226.123047" xlink:href="#YuGothic-Regular-121"/>
     <use x="275.341797" xlink:href="#YuGothic-Regular-109"/>
     <use x="361.425781" xlink:href="#YuGothic-Regular-109"/>
     <use x="447.509766" xlink:href="#YuGothic-Regular-101"/>
     <use x="503.320312" xlink:href="#YuGothic-Regular-116"/>
     <use x="538.525391" xlink:href="#YuGothic-Regular-114"/>
     <use x="574.902344" xlink:href="#YuGothic-Regular-105"/>
     <use x="601.123047" xlink:href="#YuGothic-Regular-99"/>
    </g>
   </g>
  </g>
 </g>
 <defs>
  <clipPath id="pbf1592ee9a">
   <rect height="198.304" width="621.4" x="81.32" y="38.16"/>
  </clipPath>
  <clipPath id="p44dab4bc45">
   <rect height="198.304" width="621.4" x="81.32" y="317.52"/>
  </clipPath>
 </defs>
</svg>
